<svg id="图层_1" data-name="图层 1" xmlns="http://www.w3.org/2000/svg" viewBox="0 0 156.32 113.69"><defs><style>.cls-1{fill:#97c740;}</style></defs><title>未标题-2</title><path class="cls-1" d="M874.48,757.84q-23.81,0-40.33-16.52T817.63,701a55,55,0,0,1,16.52-40.24q16.53-16.6,40.33-16.6A56.69,56.69,0,0,1,931.32,701q0,23.81-16.61,40.32T874.48,757.84Zm0-14.21a42.46,42.46,0,1,0-30.2-12.43A41.12,41.12,0,0,0,874.48,743.63Zm16.16-16.16,10.13-10.13-19.19-19.18V672.58H867.37V704ZM782.1,679.68V665.47h28.43v14.21ZM775,708.11V693.89h35.53v14.22Zm7.1,28.42V722.32h28.43v14.21Z" transform="translate(-775 -644.16)"/></svg>