<svg id="图层_1" data-name="图层 1" xmlns="http://www.w3.org/2000/svg" viewBox="0 0 669 627.71"><defs><style>.cls-1{fill:#5a5e60;}.cls-2{fill:#484c4f;}.cls-3{fill:#ffe;}.cls-4{fill:#f9762d;}</style></defs><title>未标题-5</title><ellipse class="cls-1" cx="334.5" cy="588.41" rx="334.5" ry="39.3"/><path class="cls-2" d="M1001.4,819.5c2.74,2.79,3.45,5.92,1.51,9.44a8.38,8.38,0,0,1-9.51,4,8.69,8.69,0,0,1-7-6.79c-1-4.07.44-7.34,3.59-9.83,3.63-2.87,7.4-5.57,11.11-8.34a6.68,6.68,0,0,0-3.44.24c-4.09,1-8.22,4.37-12.22-.28-.21-.25-1.18-.05-1.69.17-6.06,2.66-12.1,5.36-18.49,8.21,3,2.14,4.12,4.49,3,7.61a8.38,8.38,0,0,1-7.84,5.79,9.23,9.23,0,0,1-9.44-5.21,7.63,7.63,0,0,1,1.38-9.26,40.32,40.32,0,0,1,6.45-4.88c1.58-1.06,3.34-1.85,5-2.76a8,8,0,0,0-4.14-.49,24.42,24.42,0,0,1-4.44.05c-3.81-.5-6-2.75-5.91-5.87a6.44,6.44,0,0,1,6.41-6.36c4-.2,7.92-.17,11.88-.21,2.51,0,5,0,7.91,0-6.43-7.55-12.07-14.58-18.18-21.2-3.28-3.55-5-8-8.83-11.4-12.64-11.09-24.76-22.78-36.89-34.45A206.2,206.2,0,0,1,894.71,710c-10.14-12.41-8.25-28.28,4.17-38.46,2.67-2.19,5.66-4,8.47-6,1.1-.79,2.14-1.68,3.2-2.53l-.35-.82-84.43-6.4c-.68,10.35-1.34,20.1-1.95,29.84-.83,13.1-1.6,26.2-2.43,39.3-.67,10.62-1.61,21.23-2,31.86s-3.05,21.2.08,31.91c1.09,3.71-1.75,7.07-5.57,8.59a9.73,9.73,0,0,1-11-3c-2.31-2.79-2.38-6.49-.25-10a4.9,4.9,0,0,0,.91-2.28c.08-10.76,0-21.52.13-32.29.42-27.75,1-55.49,1.45-83.24.07-4.05,0-8.09,0-12.53-9.73-.65-19.21-1.36-28.7-1.87-3.85-.21-9-1.45-11.23.47s-2.25,7.24-3,11.11c-5.39,28.86-11.07,57.68-15.92,86.63-3.22,19.2-8.4,38.08-9.37,57.65-.17,3.4-2.92,6-6.49,6.61-3.76.62-8.14-1.55-9.67-4.79-1.41-3-.79-7.37,2.22-8.94,4.14-2.16,4.42-5.7,5.08-9.48,4.06-23.12,8.12-46.23,12.35-69.32,4.11-22.48,8.44-44.93,12.62-67.4a24,24,0,0,0,0-4.08l-7.35-.61c-2.34-.2-4.7-.27-7-.63-6.46-1-9-4-8.93-10.58,0-7.18.26-14.37.43-21.55.14-6.07,3-10.68,8.59-12.65a84.62,84.62,0,0,1,17.53-4.33c21.08-2.57,42.23-4.66,63.33-7.06.93-.11,2.49-1.51,2.45-2.24-.55-11.08-.19-22.26-4.56-32.87-3-7.29-5.53-14.78-8.1-22.24-2-5.84.13-8.91,6.23-8.8,8.78.15,17.57.44,26.33,1,1.59.09,3.28,1.36,4.57,2.48a20.56,20.56,0,0,1,3.13,4.11q16.7,24.56,33.4,49.1c.81,1.19,2.38,2.91,3.36,2.77,7.84-1.15,16.31,1.89,23.55-3.47a7.83,7.83,0,0,1,3.8-1.34c5-.47,10.09-.85,15.15-1.05,17.47-.7,32.84-6.57,45.33-19a129.58,129.58,0,0,0,12.24-14.41c7.27-9.72,14-19.87,24.24-26.88a3.09,3.09,0,0,0,.66-.86c-4.91-4-9.63-7.81-14.22-11.74-1.17-1-2.51-2.38-2.76-3.77a105.25,105.25,0,0,1-2-15.38A43.31,43.31,0,0,1,997.58,466c-1.56-.55-2.87-.91-4.09-1.45-4.42-2-8-7.36-7.82-11.7.1-2.72.89-4,4.15-3.29a66.76,66.76,0,0,0,12.44,1.63c3.27.13,6.43-.44,9.08-3.16,3.21-3.27,10.73-4.41,14.15-1.29,4.46,4.07,9.76,6.47,14.57,9.78a10.2,10.2,0,0,1,2,2.16c6.05,7.71,6.1,16.47,4.12,25.43-1.23,5.6-3,11.08-4.31,16.11,2,1.46,3.65,2.55,5.18,3.73,1.91,1.48,3.62,3.27,5.65,4.55,9.58,6,18.57,12.77,25.06,22.28a88.13,88.13,0,0,1,11.94,25.39,4.55,4.55,0,0,0,3,2.83c4.91.55,9.87.66,14.81.88,15.2.7,30.41,1.28,45.61,2.09,7.94.42,10.2,4.69,6.43,11.65-.88,1.63-2,3.14-2.8,4.8-3.21,6.67-6.83,13.19-9.36,20.1-2.82,7.71-4.62,15.79-7,24.26l4.53.33c14.57.94,29.15,1.77,43.7,2.86,7.12.53,9.57,3.41,9.57,10.54,0,12.64,0,25.27-.08,37.91,0,6.93-3.76,10.53-10.7,10.17-4.45-.23-8.88-.68-13.32-1l-12-.89c2,14,4.06,27.39,5.94,40.84q4,28.63,7.79,57.3c1.42,10.78,2.53,21.61,4,32.38a6.78,6.78,0,0,0,2.57,4.25c3.95,2.62,5.79,6.69,4.15,10.38a8.85,8.85,0,0,1-10.41,5,8.56,8.56,0,0,1-6.17-9.67,11.4,11.4,0,0,0,.53-2.85q-2.57-18.91-5.27-37.8-5.09-35.43-10.22-70.87c-1.26-8.69-2.48-17.39-3.9-26.06-.25-1.52-1.23-4-2.15-4.14-4.71-.68-9.5-.74-14.63-1,.15,1.64.21,2.85.37,4q1.63,11.75,3.3,23.49l6.45,45.5c2.06,14.55,4.13,29.1,6.1,43.66a3.3,3.3,0,0,1-1.15,2.76c-.87.48-2.83.55-3.24,0a13.86,13.86,0,0,1-2.82-5.68c-1.84-11.6-3.38-23.24-5.07-34.86q-4.23-29.19-8.52-58.36c-1-7-2-14.09-3.09-21.34L1106,678.4c-.27,1.45-.48,2.64-.72,3.81-2,9.55-3.5,19.21-6,28.63-2.37,9-8.5,14.61-18,15.85a54,54,0,0,1-9.24.58c-10.25-.46-20.51-1-30.74-1.8-7.7-.62-15.35-1.8-23-2.59a73.89,73.89,0,0,0-7.46,0c.08,1.78.14,3.21.21,4.66,5.77.4,11.2.65,16.59,1.2s7,2.54,7.1,7.63c.07,4.34,0,8.68,0,13,0,7.27-.61,5.87,5.42,7.33,3.12.76,3.91,2.15,3.24,5.26-1.8,8.28-3.32,16.62-5,25.29,10.6,1.31,20.87,2.62,31.15,3.84,8.47,1,17,1.89,25.42,2.87,3.1.36,5,2.09,5.09,5.32s-1.92,5.13-4.85,5.67a22.27,22.27,0,0,1-6.26-.07c-13.51-1.41-27-2.89-40.72-4.37a13.74,13.74,0,0,0,1.23,1.51c3.71,3.28,7.44,6.54,11.15,9.82,3.24,2.86,6.8,5.43,9.61,8.67,3.39,3.91,1.86,10.22-2.58,12.88A9.42,9.42,0,0,1,1055,830c-2.18-3.76-.13-6.56,2-9.38l-25.16-21.15-31.69,18.51C1000.82,818.75,1001.07,819.16,1001.4,819.5ZM737.05,637.62c0,.85,1.76,2.26,2.79,2.35,10.35.93,20.71,1.63,31.07,2.42q32.93,2.49,65.85,5c15.17,1.12,30.35,2.11,45.53,3.22q26.82,1.95,53.63,4c11.84.89,23.69,1.71,35.52,2.64,18,1.41,36,2.9,54,4.33,13.43,1.07,26.87,2.05,40.3,3.16,19.59,1.61,39.18,3.33,58.77,4.95s38.94,3.2,58.42,4.67c7.55.57,7.66.41,7.62-7.17,0-9.16-.45-18.33-.38-27.49,0-3.25-1.2-4.36-4.19-4.57-10.86-.74-21.7-1.66-32.56-2.39q-38-2.55-75.9-5c-16.29-1.06-32.64-1.6-48.86-3.33-15.59-1.66-30.46,2.07-45.57,4.25-9.64,1.39-19.18,4.12-28.85,4.56-10.8.5-21.71-.76-32.55-1.51-14.68-1-29.34-2.26-44-3.43-17.38-1.39-34.75-2.85-52.13-4.19q-27.37-2.1-54.76-4c-10.85-.77-21.7-1.43-33.85-2.23C736.92,624.81,736.81,631.22,737.05,637.62Zm167.76-37.47c4.22.2,7.34-1.88,10.05-4.74,3-3.13,6.48-4,10.74-3.76a146,146,0,0,0,19.28.29c5.37-.36,8.7,1.65,10.89,6.25.38.78.82,1.52,1.42,2.64,17.25-8.45,37.06-11.61,51.25-25.79-2.22-7-4.36-13.94-6.63-20.85-.73-2.21-.68-3.85,2.39-4.76,1.58,3.25,3,6.61,4.81,9.78a41.35,41.35,0,0,0,4,5.09,54.55,54.55,0,0,0,4.25-5.28c1.24-2,1.95-4.27,3.13-6.29a4.19,4.19,0,0,1,3.18-1.71c-3.61,11.55-5.48,23.76-14.49,32.61-8.84,8.68-20,13.21-32.4,16,8.44,5,18.31,7.41,21.34,18.41,11.73-2.62,24.39-3.53,34.89-10.39,5.5-3.59,9.61-9.44,14-14.6,4-4.72,7.41-9.9,11.14-14.84a25.49,25.49,0,0,1,3.23-3.58c1.42-1.28,2.89-3.16,5.07-1.35s1.17,3.69-.16,5.53c-3.76,5.22-7.48,10.47-11.22,15.7-.5.71-1,1.42-1.77,2.56,6.49,4.35,13,8.62,19.35,13a91.45,91.45,0,0,1,8.56,6.47c1.1,1,1.55,2.69,2.47,4.39h9.32c-.82-4.55-1.46-8.9-2.38-13.18-3.68-17-7-34.12-11.3-51a60.25,60.25,0,0,0-23.09-34c-2.27-1.68-4.32-3.67-6.78-5.79-6.81,7.16-13.7,14.35-20.52,21.6-2.88,3.06-5.45,6.42-8.46,9.34-2.85,2.78-4.55,2.33-5.81-1.35-1.93-5.58-3.63-11.25-5.57-17.34-3.59,5.2-7.33,10.2-10.64,15.47-8.25,13.16-18,24.86-31.38,33.07-10.87,6.66-22.42,10.73-35.43,9.81a51.69,51.69,0,0,0-17.57,1.71c-4.54,1.25-9.58.72-14.39.86-3.58.1-7.17,0-11.74,0,4.59,7.53,7.93,14.84,15.19,19.33l-.36.91a26.88,26.88,0,0,1-3.36,0c-8.67-1.15-17.31-2.61-26-3.48-12.78-1.28-25.61-2.17-38.42-3.18a28.14,28.14,0,0,0-4.77,0c-4.46.42-7.23-1.13-9.07-5.24-30.36,1.58-70.16,8.3-74.45,12.91,6.57.67,12.79,1.45,19,1.94Q813.26,617,861,620.65q34,2.54,68.13,4.67c9,.55,18.06,1.23,27,.56,9.69-.73,19.26-3,28.88-4.55a5.28,5.28,0,0,0,2.12-.61c1.55-1.1,3.42-2.12,4.27-3.67.32-.58-1.66-2.69-2.88-3.79a38,38,0,0,0-5.11-3.66c-6.14-3.92-12.49-5.59-19.64-2.55a66,66,0,0,1-12.31,3.9c-5.41,1.13-10.94,1.73-16.43,2.41-13.84,1.71-27.68,3.52-41.55,4.9a113.38,113.38,0,0,1-18.15.2c-24.07-1.55-48.12-3.36-72.18-5.07-2.53-.18-4.9-.48-3.51-4.19,7.23.69,14.42,1.49,21.63,2,16.28,1.25,32.61,2,48.84,3.68,18.63,1.93,36.68-1.67,54.86-4.36q9.7-1.44,19.35-3.18a21.58,21.58,0,0,0,5.89-2c2.11-1.08,3.8-2.43,2.84-5.54-.9-2.92-2.16-4.31-5.4-4.14-6.79.33-13.6.44-20.41.44a8.84,8.84,0,0,0-6.9,2.85,15.68,15.68,0,0,1-14.54,4.69,20.35,20.35,0,0,1-4.09-1.59L902,601A8.65,8.65,0,0,1,904.81,600.15Zm31.4,111.73c-4.53-5.55-9.17-11-13.75-16.53a15.25,15.25,0,0,1-2.24-2.94c-.35-.74-.44-2.13,0-2.57a2.93,2.93,0,0,1,2.62-.27,7.84,7.84,0,0,1,2.55,2.1c4.1,4.46,8.2,8.93,12.21,13.48,1.37,1.57,2.47,3.38,3.69,5.08l1.22-1c.26-2.73.34-5.49.8-8.18a17.1,17.1,0,0,1,25.08-12.52,6.26,6.26,0,0,0,2.75.93c9.37-.28,18.74-.66,27.91-1,0-6.05.1-12-.13-17.84,0-.75-1.75-2-2.76-2-13.43-1.13-26.87-2.12-40.31-3.11-10.6-.78-21.21-1.47-31.81-2.27a4.71,4.71,0,0,0-5,2.59c-1.24,2-3.5,3.41-5.46,4.87-3.07,2.29-6.39,4.25-9.4,6.61-10.1,7.91-11.89,20.51-3.18,29.91,11.93,12.89,24.66,25,37.16,37.38,4.67,4.6,9.74,8.8,14.46,13.35,2,1.93,3.51,1.59,5.39,0,4.24-3.57,8.56-7,13.09-10.76l-27.64-33.72C940,715.52,939,715.28,936.21,711.88ZM849.77,548.63c-7.48-11.3-7.65-11.54-21.18-11.79-3.69-.07-7.39,0-11.75,0,.71,2.57,1,5.28,2.18,7.57,5.87,11.67,11.78,23.32,18,34.78a187.57,187.57,0,0,0,11.19,17.48,7.87,7.87,0,0,0,5,3c10.81,1.08,21.67,1.79,32.49,2.63C873.67,584.33,861.63,566.53,849.77,548.63Zm152.39,193.81c-.13-2.9-2.2-6-4.11-8.45-9.42-12.08-19-24-28.69-35.89-4.64-5.7-8.6-6.89-13.37-4.46a12.87,12.87,0,0,0-6.1,14.6,28,28,0,0,0,4.81,9.44c15,18.72,30.18,37.28,45.32,55.87a21.43,21.43,0,0,0,2.33,1.91C1002.35,763.68,1002.65,753,1002.16,742.44Zm27.65-241.17-.89-.82c1.92-3.14,3.23-7,5.9-9.27,5.24-4.39,5.75-15.25,3.12-20.32a17.31,17.31,0,0,0-17.7-8.91,138.13,138.13,0,0,0-16.52,3.8,5.47,5.47,0,0,0-2.87,3.07c-2.92,7.23-4.18,14.7-2.48,22.46.23,1.06,1,2,1.11,3.09.19,1.37.55,3.14-.1,4.13-1.35,2.09-1.21,3.14,1,4.33q5.19,2.76,10.1,6c8.09,5.34,15.53,3.77,21.26-4.66.76-1.11,1.36-2.32,2.24-3.84Zm-21.33,187.35c3,.19,5.56.39,8.11.51,16.06.76,32.12,1.41,48.17,2.3A50.29,50.29,0,0,1,1086,697.3c2.51,1.36,4.18,1.08,4.93-1.91,1.52-6.08,3.06-12.17,4.68-18.59l-87.16-7.19Zm1.68,25.87c6.28.43,12.37,1,18.48,1.23,12,.44,23.94.9,35.91.91,4.37,0,8.74-1.21,13.1-2a5.24,5.24,0,0,0,2.7-1.12c2.16-2.06,4.16-4.31,6.21-6.49-2.21-1.61-4.21-3.88-6.68-4.68a51.42,51.42,0,0,0-13.3-2.62c-16.77-.77-33.57-1.12-50.36-1.71a59.38,59.38,0,0,1-6.91-1.1C1009.59,702.64,1009.86,708.29,1010.16,714.49Zm-8.5,87.85c0-6.15,0-12,0-17.91a3,3,0,0,0-.72-1.65q-12.82-15.81-25.69-31.6l-16.5,14.08C970.82,779.92,980.9,796.57,1001.66,802.34Zm95.05-216.57a3.83,3.83,0,0,0,2.72,2.22q17.1,1.8,34.25,3.22a3.41,3.41,0,0,0,2.73-1.46c2.44-5.23,4.64-10.57,7.2-16.51l-49.78-2.38C1094.81,576.13,1095.59,581,1096.71,585.77ZM1011.28,774c.15,4.25,1.35,8.46,1.76,12.72.17,1.83-.59,3.73-.68,5.61a32.11,32.11,0,0,0,.39,4.46c1.24-.23,2.65-.14,3.68-.73,5.33-3,10.58-6.24,15.81-9.47a4,4,0,0,0,1.71-2.17c1.61-7.45,3.08-14.93,4.63-22.56-3.55-.66-6.67-1.37-9.82-1.74a3.69,3.69,0,0,0-2.58,1.35c-3,3.32-5.74,6.81-8.72,10.11a14,14,0,0,1-4.56,3.19c-.2-4.39,2.06-7.54,4.65-10.22s2.2-4.83-.16-7.4-4.33-5.38-6.2-7.75C1011.19,757.5,1011,765.75,1011.28,774Zm-200-118.83q-1.22,62.93-2.43,125.45l1.27.31a7.54,7.54,0,0,0,1.08-2.31q1.15-17,2.19-34.09,2.43-39.09,4.84-78.19c.22-3.57.35-7.14.54-11.17Zm320-54-31.85-2.58c1.18,7.28,2.26,14.26,3.51,21.22a2.67,2.67,0,0,0,1.89,1.68c6.89.46,13.79.76,20.88,1.12Zm-85.66-87.56-8.14-6.63c-2.16,1.53-5.15,3.83-8.34,5.84a87,87,0,0,1-8.14,4.36c-5,2.46-6.17,3.87-5.46,9.24.58,4.41,2.09,8.7,3.39,13.85ZM975.5,697.09l25.59,33.32.9-.32c-.49-11-1-22-1.48-33Zm58.5-79.35,41.24,2.9.4-.64-25.3-16.87ZM828.94,598.36l15.29,1-16.5-26.17C828.16,582.16,828.54,590.15,828.94,598.36Zm195,139.5h-14.22c3.46,6.93,8.31,12.23,13,17.61l1.19-.4Z" transform="translate(-625.05 -225.67)"/><path class="cls-3" d="M930.21,225.67c4.58,1.08,9.29,1.77,13.7,3.33,8.27,2.93,15.11,7.82,19.11,16,.26.52,1.47.85,2.22.83,10.48-.32,20.4,1.63,29.31,7.39,5.78,3.74,10.25,8.63,12,15.48,1.64,6.36.22,12.21-3.77,17.87a45.33,45.33,0,0,1,3.6,3.29c8.75,9.77,8.22,22.59-1.33,31.64-7.8,7.38-17.37,10.67-27.87,11.24-4.55.25-9.14-.48-13.71-.68a2.89,2.89,0,0,0-2.15.63c-5.25,7.39-12.6,11.62-21.12,13.87-14.57,3.85-28.47,2.32-41.42-5.8a3,3,0,0,0-2.41.05c-17.25,8.17-34.28,8.08-50.78-1.79-7.1-4.25-11.84-10.51-12.58-19.15-.09-1.1,0-2.21,0-2.8-5.07-2-10-3.48-14.52-5.72-6.34-3.12-11.3-7.88-13.94-14.62-3.39-8.65-.74-17.88,7-24.82,5.47-4.88,12-7.69,19.07-9.29l2.78-.6c1-14.06,9.88-21.34,21.79-25.71,12.22-4.48,24.58-4.14,36.82.35a2.85,2.85,0,0,0,2.39-.2c7.06-6.21,15.44-9.25,24.61-10.45a7.62,7.62,0,0,0,1.3-.36Zm-56.9,12.69c-3.26.38-6.55.55-9.75,1.16-7.78,1.48-14.8,4.58-20.13,10.67-3,3.47-4.91,7.46-4.29,12.23.45,3.45-.06,4.18-3.49,4.7-8.21,1.26-15.8,3.94-21.76,10-7.57,7.73-7.15,17.88.86,25.15,6,5.41,13.15,8,21,9.17,2.72.41,3.53,1.54,3,4.18a15,15,0,0,0,2.21,11.48,24.22,24.22,0,0,0,10,8.93c15,7.31,30,7.17,44.66-1,1.5-.84,2.8-1.3,4.34-.17,12,8.79,25.32,10.21,39.33,6.45,8-2.13,14.72-6.23,18.91-13.72.9-1.59,2.28-1.7,3.92-1.3a47.32,47.32,0,0,0,20.51.49c7.84-1.53,14.93-4.58,20.31-10.75,5.81-6.67,6-15,.38-21.7a29.3,29.3,0,0,0-4.26-4.07c-3.17-2.55-3.31-3.15-.88-6.35,5.23-6.89,5.11-14.49-.58-21a29.44,29.44,0,0,0-6-5.27c-8.8-5.71-18.61-7.15-28.87-6.25-1.94.17-3.16-.4-3.78-2.27a21.85,21.85,0,0,0-9.41-11.5c-9.19-5.91-19.36-7.51-30-6.25-8.83,1.05-16.8,4.13-23.06,10.77-1.24,1.32-2.63,1.15-4.14.46A48.06,48.06,0,0,0,873.31,238.36Z" transform="translate(-625.05 -225.67)"/><path class="cls-3" d="M1009.24,418.58c-.36.64-.73,1.27-1.06,1.92a1.12,1.12,0,0,0-.13.71c.76,3.09-.61,5.55-3.69,6.19a19.84,19.84,0,0,1-3.85,0,2.63,2.63,0,0,0-1.33.27,6.58,6.58,0,0,1-8.26-.54,1.44,1.44,0,0,0-1.11-.27,6.6,6.6,0,0,1-5.28-1,4.44,4.44,0,0,1-2-4.5,1.08,1.08,0,0,0-.33-.88c-1.66-1.2-2.64-2.73-2.11-4.82a5,5,0,0,1,4.31-3.71,2.34,2.34,0,0,0,1.83-1.23c1.51-2.52,5.48-3.34,8.25-1.74a1.53,1.53,0,0,0,1.63.05c2.8-1.3,6.46-.47,7.73,2a4.9,4.9,0,0,0,2.85,2.64,4.94,4.94,0,0,1,2.59,3Zm-6.61,7.95a16,16,0,0,0,2.56-.86,3,3,0,0,0,1.51-4.13,1.27,1.27,0,0,1,.28-1.75,2.85,2.85,0,0,0-.38-4.52,7.57,7.57,0,0,0-2.38-1c-.63-.17-1-.37-1-1.09a3.07,3.07,0,0,0-1.63-2.62,5,5,0,0,0-5.52,0,1.32,1.32,0,0,1-1.71,0,5.43,5.43,0,0,0-1.89-.87,4.65,4.65,0,0,0-5.61,2.82c-.13.32-.67.54-1.06.67a15.06,15.06,0,0,0-2.84.82c-2.27,1.29-2.25,4-.06,5.39a5.33,5.33,0,0,0,.71.38c.57.24.77.63.49,1.19a3.18,3.18,0,0,0,1.78,4.23,5.4,5.4,0,0,0,4.21.2c.56-.19,1-.28,1.41.3,1.48,2.3,5.52,2.45,7.5.46a1.71,1.71,0,0,1,1.3-.24A21.65,21.65,0,0,1,1002.63,426.53Z" transform="translate(-625.05 -225.67)"/><path class="cls-3" d="M1003.85,377.45c2.24,4.22,1.47,7.65-2.37,10.42s-8.49,3.62-13.31,3a3.1,3.1,0,0,0-2.09.55,17.2,17.2,0,0,1-18.91,1.15,2.55,2.55,0,0,0-1.89-.11,17.94,17.94,0,0,1-11.84,0c-4.18-1.56-5.94-4.23-5.71-8.71-.59-.25-1.22-.51-1.85-.79-5.87-2.64-6.59-8.91-1.48-12.82a16.87,16.87,0,0,1,7.34-3.1,1.87,1.87,0,0,0,1.27-.71c1.81-4,5.24-5.81,9.23-6.8a17.55,17.55,0,0,1,10.14.47,3.14,3.14,0,0,0,2.19-.18,17.68,17.68,0,0,1,14.93-.95,8.53,8.53,0,0,1,5,4.57,2.12,2.12,0,0,0,1.3.84c1.55.4,3.19.53,4.68,1.07C1005.08,367,1008.6,371.78,1003.85,377.45Zm-37.23-16.19c-2.77.3-5.39.79-7.59,2.3a8.87,8.87,0,0,0-3.36,3.67,3.11,3.11,0,0,1-3.09,2.33,11.8,11.8,0,0,0-7.68,3.64c-2,2.23-1.73,4.82.74,6.47a14.71,14.71,0,0,0,3.66,1.57c1.61.53,1.89.95,1.34,2.55a3.71,3.71,0,0,0,1.32,4.69,10.78,10.78,0,0,0,3.24,1.69,15.38,15.38,0,0,0,10.23-.61c.69-.25,1.92-.33,2.31.08,3.87,3.94,13.6,3.14,17.48-1a3.65,3.65,0,0,1,2.42-.63c2,0,4,.41,5.9.24a11.5,11.5,0,0,0,7.56-3.52c1.78-1.89,2-4.06.37-5.75-1.19-1.26-1-2.08.18-3.19,2.82-2.68,2.43-5.86-1.14-7.47a24.22,24.22,0,0,0-6.34-1.38c-1-.15-1.81-.32-2-1.45-.3-2.25-1.79-3.49-3.73-4.23a14.4,14.4,0,0,0-13.38,1.35,3,3,0,0,1-3,.22C970.35,362.13,968.46,361.76,966.62,361.26Z" transform="translate(-625.05 -225.67)"/><path class="cls-3" d="M1254.89,311.52c-4.77-5.57-10.85-9.22-17.67-11.74l-2.67-1c.91-14.06-7-22.46-18.19-28.37-11.51-6.06-23.81-7.37-36.54-4.54a2.87,2.87,0,0,1-2.34-.51c-6.17-7.1-14.08-11.22-23-13.63a7.87,7.87,0,0,1-1.23-.53l-9.77-1.3c-4.68.46-9.45.51-14,1.47-8.59,1.81-16,5.75-21.07,13.34-.32.49-1.56.66-2.31.53-10.34-1.7-20.43-1.09-30,3.44-6.23,2.93-11.31,7.19-14,13.75-2.47,6.08-1.85,12.07,1.35,18.21-1.34.93-2.77,1.73-4,2.78-10,8.52-11.14,21.3-2.87,31.53,6.75,8.36,15.8,12.89,26.13,14.84a74.77,74.77,0,0,0,10.06.91l3.19-5.06a47.46,47.46,0,0,1-17.79-2.45c-7.56-2.56-14.19-6.53-18.7-13.35-4.87-7.38-3.91-15.67,2.51-21.56a30.18,30.18,0,0,1,4.75-3.48c3.49-2.09,3.7-2.68,1.72-6.16-4.27-7.53-3.14-15,3.36-20.76a29.74,29.74,0,0,1,6.69-4.42c9.48-4.48,19.4-4.61,29.45-2.36,1.89.43,3.17,0,4-1.74a21.76,21.76,0,0,1,10.86-10.15c9.89-4.65,20.18-4.88,30.58-2.21,8.61,2.2,16.1,6.31,21.42,13.73,1.07,1.47,2.46,1.49,4,1a48.32,48.32,0,0,1,19.33-1.71c3.17.81,6.41,1.41,9.51,2.45,7.51,2.5,14,6.5,18.53,13.24,2.55,3.84,3.88,8.05,2.63,12.7-.9,3.35-.49,4.15,2.83,5.12,8,2.33,15.14,6,20.24,12.82,6.47,8.67,4.71,18.68-4.2,24.82-6.63,4.57-14.08,6.17-22,6.31-2.75,0-3.71,1.05-3.5,3.75a15,15,0,0,1-3.71,11.08,24.16,24.16,0,0,1-11.13,7.51c-15.86,5.26-30.65,3.14-44.13-6.91-1.37-1-2.6-1.66-4.28-.74a43.12,43.12,0,0,1-15.33,5l-3,5.54a50.21,50.21,0,0,0,18.61-4.6,3,3,0,0,1,2.37.37c16,10.39,32.91,12.56,50.57,5,7.61-3.27,13.14-8.85,15-17.32.24-1.07.31-2.18.39-2.77,5.28-1.27,10.35-2.12,15.14-3.74,6.71-2.25,12.26-6.31,15.77-12.64C1263.07,328.92,1261.67,319.43,1254.89,311.52Z" transform="translate(-625.05 -225.67)"/><path class="cls-3" d="M1039.78,428.84a4.93,4.93,0,0,1,3-2.68,4.89,4.89,0,0,0,3.17-2.23c1.59-2.31,5.33-2.65,7.93-1a1.53,1.53,0,0,0,1.63.17c3-1.21,6.78.13,7.94,2.83a2.37,2.37,0,0,0,1.66,1.46,5,5,0,0,1,3.78,4.25c.24,2.14-.93,3.52-2.74,4.49a1.1,1.1,0,0,0-.45.83,4.41,4.41,0,0,1-2.61,4.19,6.61,6.61,0,0,1-5.37.25,1.47,1.47,0,0,0-1.13.12,6.58,6.58,0,0,1-8.26-.56,2.58,2.58,0,0,0-1.28-.44,19.86,19.86,0,0,1-3.82-.49c-3-1-4-3.67-2.83-6.63a1.19,1.19,0,0,0,0-.72c-.24-.69-.53-1.36-.8-2Zm7.68,10.21a1.76,1.76,0,0,1,1.26.41c1.7,2.24,5.71,2.63,7.49.54.45-.52.91-.37,1.44-.11a5.32,5.32,0,0,0,4.19.36,3.18,3.18,0,0,0,2.34-3.95c-.21-.6,0-1,.64-1.12a4.81,4.81,0,0,0,.75-.28c2.36-1.12,2.74-3.77.66-5.35a15.46,15.46,0,0,0-2.71-1.2c-.37-.17-.88-.46-1-.79a4.64,4.64,0,0,0-5.19-3.55,5.57,5.57,0,0,0-2,.62,1.31,1.31,0,0,1-1.69-.19,5.06,5.06,0,0,0-5.48-.71,3.07,3.07,0,0,0-2,2.37c-.11.72-.52.87-1.17.95a7.33,7.33,0,0,0-2.48.65,2.86,2.86,0,0,0-1,4.44,1.27,1.27,0,0,1,0,1.77,3,3,0,0,0,.95,4.29,16,16,0,0,0,2.42,1.19C1045.88,439.27,1046.67,439.08,1047.46,439.05Z" transform="translate(-625.05 -225.67)"/><path class="cls-3" d="M1055.34,379c1.56-.34,3.19-.25,4.78-.45a2.13,2.13,0,0,0,1.41-.65A8.47,8.47,0,0,1,1067,374a17.67,17.67,0,0,1,14.67,2.92,3.19,3.19,0,0,0,2.14.47,17.48,17.48,0,0,1,10.12.88c3.82,1.51,7,3.75,8.24,8,.12.38.72.73,1.17.88a16.89,16.89,0,0,1,6.86,4c4.55,4.55,3,10.68-3.17,12.51l-1.93.53c-.38,4.48-2.47,6.89-6.83,7.88a17.85,17.85,0,0,1-11.73-1.53,2.6,2.6,0,0,0-1.89-.14,17.21,17.21,0,0,1-18.59-3.65,3.09,3.09,0,0,0-2-.82,17.83,17.83,0,0,1-12.8-4.71c-3.44-3.25-3.74-6.76-1-10.64C1046.39,384.33,1050.51,380,1055.34,379Zm28.38,1.29a2.92,2.92,0,0,1-2.91-.61,14.42,14.42,0,0,0-13.09-3.11c-2,.48-3.66,1.5-4.25,3.7-.3,1.1-1.11,1.16-2.14,1.17a24,24,0,0,0-6.47.53c-3.75,1.12-4.56,4.22-2.11,7.25,1,1.26,1.09,2.1-.25,3.19-1.81,1.46-1.91,3.64-.4,5.75a11.52,11.52,0,0,0,7,4.48c1.9.43,3.92.3,5.87.56a3.64,3.64,0,0,1,2.32.94c3.3,4.64,12.83,6.73,17.19,3.34.45-.35,1.65-.12,2.3.23a15.43,15.43,0,0,0,10.06,2,11.17,11.17,0,0,0,3.44-1.24,3.7,3.7,0,0,0,1.92-4.47c-.33-1.67,0-2.05,1.68-2.36a14.54,14.54,0,0,0,3.82-1.07c2.68-1.31,3.28-3.84,1.6-6.31a11.77,11.77,0,0,0-7.13-4.63,3.12,3.12,0,0,1-2.76-2.72,8.71,8.71,0,0,0-2.84-4.08,16,16,0,0,0-7.21-3.29C1087.5,379.73,1085.57,379.84,1083.72,380.27Z" transform="translate(-625.05 -225.67)"/><path class="cls-3" d="M885.05,321.7c-8.34,2-16.8,2.51-25.26,3.09l3.46-.44,3.78-.49c1.2-.16,2.4-.28,3.59-.44,1.35-.19,2.69-.41,4-.62l4.68-.72c1-.14,1.95-.29,2.94-.36S884.12,321.7,885.05,321.7Z" transform="translate(-625.05 -225.67)"/><path class="cls-3" d="M877.36,325.8c-1,0-2,.15-3,.1.54-.07,1.07-.16,1.61-.2,1.34-.1,2.68-.16,4-.28,1.67-.15,3.33-.42,5-.5,2.21-.1,4.43-.63,6.66,0a3,3,0,0,0,.74,0,.94.94,0,0,0,0,.16,6.79,6.79,0,0,1-.75.11c-.94,0-1.88,0-2.81,0-1.76.1-3.52.26-5.28.39-.69.05-1.37.11-2.05.13C880.15,325.74,878.75,325.74,877.36,325.8Z" transform="translate(-625.05 -225.67)"/><path class="cls-3" d="M895.11,326.23a.91.91,0,0,1,0,.17c-.68,0-1.36.09-2,.1l-6.94.14-10.22.13-15.25.14a3.85,3.85,0,0,1-1.25-.14c1.07,0,2.13,0,3.2,0,2.25,0,4.5-.09,6.75-.11,2.44,0,4.89,0,7.33,0s4.85-.08,7.28-.15,4.79-.19,7.18-.26C892.48,326.2,893.79,326.23,895.11,326.23Z" transform="translate(-625.05 -225.67)"/><path class="cls-3" d="M896.48,326.1a18,18,0,0,0-2-1.06,32,32,0,0,0-4-1.32c-2-.47-3.9.11-5.84.36-1.35.17-2.71.26-4.07.41s-2.87.36-4.31.51c-1.18.12-2.37.19-3.56.29-1.53.13-3.07.28-4.6.4-.9.06-1.82.12-2.72.13-2.08,0-4.15,0-6.21,0l0-.07c.89-.07,1.76-.15,2.64-.19,2.15-.11,4.3-.14,6.44-.29,2.39-.16,4.79-.36,7.17-.67,3-.41,6-1,9-1.44a23,23,0,0,1,5.55-.41,11.43,11.43,0,0,1,5.28,2.17A5.38,5.38,0,0,1,896.48,326.1Z" transform="translate(-625.05 -225.67)"/><path class="cls-3" d="M898.73,323.45c-.05-6.65-.11-13.29-.13-19.94,0-8.18,0-16.38,0-24.57,0-1.13-.07-2.26-.15-3.4a.74.74,0,0,0-.35-.46,35.06,35.06,0,0,0-8.1-3.75,35.62,35.62,0,0,0-8.1-1.58,44.93,44.93,0,0,0-5.19,0,37,37,0,0,0-5,.43c-2.3.42-4.56,1-6.82,1.6a1.33,1.33,0,0,0-.72.75,18.61,18.61,0,0,0-.55,2.23c-.77,3.66-1.52,7.33-2.28,11q-.93,4.51-1.87,9c-.58,2.81-1.17,5.61-1.77,8.42-.7,3.34-1.43,6.68-2.13,10-.59,2.83-1.17,5.67-1.72,8.51-.25,1.22-.43,2.46-.64,3.71h2.48c.08,0,.16-.14.25-.19a5.48,5.48,0,0,1,1.27-.7,20.65,20.65,0,0,1,2.2-.38l5.31-.85,3.89-.64c1.63-.27,3.27-.54,4.9-.84s3.13-.64,4.7-1c-6.8.4-13.46,1.74-20.21,2.72a4.14,4.14,0,0,1,.61-.28c1.67-.42,3.35-.8,5-1.23A71,71,0,0,1,877,320a40.73,40.73,0,0,1,9.23.39,19.21,19.21,0,0,1,9.07,4l1.53,1.19a4.61,4.61,0,0,1,1.09-.51c.57-.12.71-.48.77-.94C898.74,323.9,898.73,323.67,898.73,323.45Zm-20.75-33h0a26.4,26.4,0,0,1,5.17-.21,35.26,35.26,0,0,1,5.12.62,27.61,27.61,0,0,1,4.94,1.43,15.49,15.49,0,0,1,4.4,2.6h0l0,.22a1.51,1.51,0,0,1-.62-.14l-.58-.26-1.14-.54c-.38-.18-.75-.38-1.14-.54s-.77-.32-1.16-.45a22.52,22.52,0,0,0-4.83-1.16,48.45,48.45,0,0,0-5-.28l-2.53,0-1.26,0c-.42,0-.84,0-1.34-.05a.59.59,0,0,1,0-1.18Zm-5.15,5a18.06,18.06,0,0,1,2.26-.42.6.6,0,0,1,.66.52h0v.15a.59.59,0,0,1-.52.66h0a18.18,18.18,0,0,1-2.09.12,10.91,10.91,0,0,1-2.12-.18h0s0,0,0,0,0-.14,0-.19A15.21,15.21,0,0,1,872.83,295.46Zm-9.63-8.58h0c1.38-.21,2.75-.39,4.14-.52.69-.07,1.39-.11,2.08-.16s1.4-.06,2.11,0h0s0,0,0,0h0l0,.19c-1.19.38-2.51.72-3.88,1-.69.17-1.39.31-2.09.45s-1.43.25-2.14.38a.58.58,0,0,1-.68-.48v0l0-.19A.6.6,0,0,1,863.2,286.88ZM862,302.61a34.24,34.24,0,0,1,6-1.84,31.29,31.29,0,0,1,6.33-.68.6.6,0,0,1,0,1.2c-2.06.12-4.12.34-6.18.58S864.1,302.4,862,302.61Zm35.53,7.2-.09.15c-.31-.13-.62-.24-.93-.38s-.59-.3-.89-.44c-.59-.3-1.19-.57-1.79-.82a25.16,25.16,0,0,0-3.75-1.2,41.58,41.58,0,0,0-7.79-1,46.61,46.61,0,0,0-7.84.18c-1.3.16-2.62.32-3.93.51l-1.95.29-1,.13-.49.08a1.43,1.43,0,0,1-.46,0,1.22,1.22,0,0,1-.47-.23.61.61,0,0,1,.28-1.06c1.33-.23,2.65-.48,4-.69s2.67-.31,4-.41a64.22,64.22,0,0,1,8.09-.13,35.13,35.13,0,0,1,8,1.22,21.81,21.81,0,0,1,3.75,1.52,15.93,15.93,0,0,1,1.73,1l.81.59.41.3c.07.06.13.09.2.16a1.13,1.13,0,0,1,.11.22Zm-11.5-9a.6.6,0,0,1,.55-.51,11,11,0,0,1,3,.3,18.19,18.19,0,0,1,2.8.88,16.29,16.29,0,0,1,2.6,1.32,8.85,8.85,0,0,1,2.2,1.89,37.94,37.94,0,0,0-10.64-3.2h0A.6.6,0,0,1,886,300.8Zm12-.92-.08.09-.13.17a.61.61,0,0,1-.78.15L894.92,299c-.69-.39-1.4-.73-2.12-1.05a24.73,24.73,0,0,0-4.55-1.41,44.68,44.68,0,0,0-4.77-.76c-.8-.09-1.61-.16-2.42-.22s-1.62-.05-2.43-.19a0,0,0,0,1,0,0l0-.16,2.42-.15,1.26-.07c.43,0,.86,0,1.26,0l2.49.06c.84,0,1.66.14,2.49.25a22,22,0,0,1,4.88,1.29,17.77,17.77,0,0,1,2.29,1.09q.56.31,1.08.66l.53.34.14.08.06,0,.16.14a1.85,1.85,0,0,1,.22.31A.46.46,0,0,1,898,299.88Zm.16-9.38a.61.61,0,0,1-.72.21c-2.19-.89-4.26-1.91-6.42-2.64s-4.47-1.18-6.7-1.88a28.69,28.69,0,0,1,7.08.59,19.92,19.92,0,0,1,3.44,1.09,18.4,18.4,0,0,1,3.18,1.79A.61.61,0,0,1,898.15,290.5Z" transform="translate(-625.05 -225.67)"/><path class="cls-3" d="M902,327.51a6.14,6.14,0,0,1-4.34.18c-.15-.05-.37-.18-.38-.29a.7.7,0,0,1,.23-.48C898.89,325.66,901.07,326.44,902,327.51Z" transform="translate(-625.05 -225.67)"/><path class="cls-3" d="M904.22,326.31l20.69.3H904.22Z" transform="translate(-625.05 -225.67)"/><path class="cls-3" d="M930.26,324.16a4.51,4.51,0,0,0-.53-.08l-3.09-.25c-1-.08-2.06-.17-3.09-.28-1.29-.14-2.57-.29-3.86-.45-.8-.1-1.6-.25-2.41-.33-1.07-.12-2.15-.24-3.23-.28a22.65,22.65,0,0,0-6.9.86.81.81,0,0,1-.22,0,1.36,1.36,0,0,0,0-.17,20.05,20.05,0,0,1,2.91-.67,51.94,51.94,0,0,1,6.11-.26c1.93.06,3.85.39,5.77.6,1.23.14,2.45.3,3.67.43,1.57.18,3.14.36,4.72.56C930.14,323.85,930.2,324.05,930.26,324.16Z" transform="translate(-625.05 -225.67)"/><path class="cls-3" d="M930.27,324.16h0Z" transform="translate(-625.05 -225.67)"/><path class="cls-3" d="M926.56,324.62l4.78.34c-1,0-2,0-2.9,0-.22,0-.44-.07-.66-.07-1.53-.05-3.07,0-4.59-.13-2-.13-3.9-.4-5.86-.51-2.7-.15-5.4-.2-8.11-.27a7.54,7.54,0,0,0-1.23.16v-.19c1.35-.12,2.71-.32,4.08-.34s2.6.13,3.9.21l2,.15,5.15.4Z" transform="translate(-625.05 -225.67)"/><path class="cls-3" d="M928.3,325.7c1.71.09,3.41.21,5.11.43-.72-.05-1.45-.11-2.17-.14s-1.61,0-2.41,0c-2.69,0-5.38-.07-8.07-.14-2.15-.06-4.3-.19-6.45-.25s-4.5-.12-6.74-.13c-.8,0-1.59.11-2.38.17a30.15,30.15,0,0,1,7.7-.57c1.89,0,3.77.17,5.66.26l3.12.13Z" transform="translate(-625.05 -225.67)"/><path class="cls-3" d="M928.56,326.8h4.73v.06h-4.74S928.56,326.82,928.56,326.8Z" transform="translate(-625.05 -225.67)"/><path class="cls-3" d="M933.39,324.38l-3.08-.22c.42,0,.85-.08,1.27-.07A7.51,7.51,0,0,1,933.39,324.38Z" transform="translate(-625.05 -225.67)"/><path class="cls-3" d="M944.58,321.26c-.5-2.31-1-4.6-1.52-6.91-.62-2.87-1.21-5.76-1.84-8.63-.66-3.05-1.36-6.1-2.05-9.14s-1.41-6.17-2.13-9.26c-.62-2.7-1.27-5.39-1.89-8.09-.5-2.13-1-4.25-1.46-6.38a1.15,1.15,0,0,0-.74-1l-3.34-1.37a21.86,21.86,0,0,0-7.4-1.7,39.76,39.76,0,0,0-8.37.34,23.85,23.85,0,0,0-6.59,1.9c-2.17,1.07-4.25,2.33-6.38,3.5a1,1,0,0,0-.55,1q.09,7.13.15,14.24.07,9,.13,17.93c0,5,0,9.94,0,14.92v2.41a2.2,2.2,0,0,1,.43.16c.62.43,1,.29,1.43-.36a6.3,6.3,0,0,1,1.53-1.47,15.38,15.38,0,0,1,6.18-2.59,23,23,0,0,1,7.11-.33c2,.21,4,.56,5.93.92,2.75.52,5.48,1.1,8.22,1.68,1.86.39,3.72.84,5.58,1.24s3.61.73,5.42,1.07c1,.19,2,.31,3.08.48C945.18,324.26,944.89,322.76,944.58,321.26Zm-42-42a5.83,5.83,0,0,1,1-1.28,10.61,10.61,0,0,1,1.3-1,11.44,11.44,0,0,1,1.44-.83,9.93,9.93,0,0,1,1.58-.6.6.6,0,0,1,.45,1.11c-.5.28-1,.56-1.56.81s-1.07.5-1.59.69C904.25,278.59,903.34,278.92,902.62,279.29Zm5.3,26.35a32.92,32.92,0,0,1-3.69,1.76.6.6,0,0,1-.59-1,11.77,11.77,0,0,1,3.53-1.75A12.52,12.52,0,0,1,911,304C910.07,304.43,909.07,305,907.92,305.64Zm1.26-10.7c-.59.29-1.24.57-1.88.84s-1.31.49-2,.72a.6.6,0,0,1-.49-1.08h0a14.91,14.91,0,0,1,3.67-1.47,15.2,15.2,0,0,1,3.86-.44A31.57,31.57,0,0,0,909.18,294.94Zm17.13-19.36a25.21,25.21,0,0,1,5.69,1.71.59.59,0,0,1,.35.65h0l0,.19h0a.58.58,0,0,1-.68.47h0c-.24-.06-.5-.11-.74-.18l-.7-.2c-.47-.14-.94-.27-1.4-.42l-2.75-.88-1.39-.43a12.53,12.53,0,0,0-1.37-.36c-.93-.21-1.91-.28-2.85-.58A17,17,0,0,1,926.31,275.58Zm-7.88,8.88a28.13,28.13,0,0,1,7.77.54,29.49,29.49,0,0,1,7.3,2.58c-2.52-.45-5-.94-7.52-1.3a57.62,57.62,0,0,0-7.52-.62.6.6,0,0,1-.59-.61A.59.59,0,0,1,918.43,284.46Zm-2.49,12.79a37.72,37.72,0,0,1,15.27,1.37,37.11,37.11,0,0,1,4.77,1.81c-1.66-.33-3.3-.69-5-.95s-3.31-.53-5-.73a56.6,56.6,0,0,0-10-.3.6.6,0,0,1-.11-1.2Zm-1.32,12.2h0a.6.6,0,0,1-.2-1.17l.79-.21c.26-.05.51-.07.77-.11a12.8,12.8,0,0,1,1.5-.12c1,0,2,0,3,0,2,.11,3.93.29,5.88.57s3.88.63,5.79,1.09c.95.24,1.9.49,2.84.8.47.14.93.31,1.39.48a5.77,5.77,0,0,1,.69.3c.24.11.44.21.65.29-1.78-.32-3.64-.59-5.57-.83s-4-.53-6-.86A51.43,51.43,0,0,0,914.62,309.45Zm25.31,7.83a.62.62,0,0,1-.71.41q-4.35-1-8.71-1.93c-2.92-.6-5.84-1.13-8.8-1.64a44,44,0,0,1,9,.38,55.42,55.42,0,0,1,8.81,2A.6.6,0,0,1,939.93,317.28Z" transform="translate(-625.05 -225.67)"/><path class="cls-3" d="M991.78,304.58a30.41,30.41,0,0,0-4.26-4.07c-3.17-2.55-3.31-3.15-.88-6.34,5.23-6.89,5.11-14.49-.58-21a29.78,29.78,0,0,0-6-5.27c-8.8-5.7-18.62-7.14-28.87-6.24-1.94.17-3.16-.4-3.79-2.27a21.75,21.75,0,0,0-9.4-11.5c-9.19-5.92-19.36-7.51-30-6.26-8.82,1-16.8,4.14-23.06,10.77-1.24,1.33-2.63,1.16-4.14.47a47.88,47.88,0,0,0-18.92-4.26c-3.26.38-6.55.54-9.75,1.15-7.78,1.49-14.8,4.58-20.13,10.67-3,3.47-4.91,7.47-4.29,12.24.45,3.45-.07,4.18-3.48,4.69-8.22,1.26-15.81,3.94-21.77,10-7.57,7.73-7.15,17.88.87,25.15,6,5.41,13.14,8,20.94,9.17,2.72.42,3.54,1.55,3,4.18a15.08,15.08,0,0,0,2.21,11.49,24.37,24.37,0,0,0,10,8.92c15,7.31,30,7.17,44.67-1,1.5-.84,2.8-1.3,4.34-.17,12,8.79,25.31,10.22,39.33,6.46,8-2.14,14.72-6.24,18.92-13.73.88-1.59,2.28-1.69,3.91-1.29a47.47,47.47,0,0,0,20.51.49c7.84-1.54,14.93-4.59,20.31-10.76C997.21,319.62,997.35,311.28,991.78,304.58ZM947.1,328.27c-.48.59-1.21.49-1.85.49-5.87,0-11.74,0-17.61,0-5.39,0-10.79,0-16.19,0-2.27,0-4.54-.08-6.81-.13a1.72,1.72,0,0,0-1,.36,8.8,8.8,0,0,1-2.35,1.09,6.72,6.72,0,0,1-4.26-.39,3,3,0,0,1-1.18-.69,1.62,1.62,0,0,0-1.55-.49c-.46,0-.93.12-1.39.12H878.46c-8.35,0-16.7.09-25,.12a8.07,8.07,0,0,1-1.38-.14c-.37-.06-.88-.95-.83-1.59a16.28,16.28,0,0,1,.28-2.21c.56-2.81,1.12-5.61,1.71-8.41.53-2.52,1.1-5,1.64-7.54.44-2.05.86-4.1,1.3-6.15l1.38-6.59c.62-2.89,1.22-5.77,1.84-8.65s1.19-5.59,1.8-8.38c.51-2.35,1.17-4.67,1.48-7.05.16-1.17.58-1.68,1.62-1.92,2.54-.62,5.06-1.36,7.63-1.85a37,37,0,0,1,5.27-.43,25.62,25.62,0,0,1,4.38,0,69.06,69.06,0,0,1,7.43,1.28,34.32,34.32,0,0,1,9.68,4.27,1,1,0,0,0,.87,0c2.14-1.24,4.21-2.62,6.4-3.76a22.32,22.32,0,0,1,7.54-2.31,48.4,48.4,0,0,1,6-.51,31.8,31.8,0,0,1,13,2.64,18,18,0,0,0,1.82.77,1.28,1.28,0,0,1,.87,1.11c.74,3.35,1.46,6.71,2.23,10.06,1.06,4.54,2.19,9.06,3.24,13.6.88,3.78,1.7,7.57,2.54,11.35q1.68,7.46,3.35,14.92.57,2.53,1.07,5.09A2.3,2.3,0,0,1,947.1,328.27Z" transform="translate(-625.05 -225.67)"/><path class="cls-3" d="M1111.85,356.29a14,14,0,0,0-1.35,6.16c0,.92-.11,1.84-.2,2.75,0,.11-.2.31-.3.31s-.53-.1-.58-.24a8.17,8.17,0,0,1-.51-1.73,6.29,6.29,0,0,1,0-1.23,7.54,7.54,0,0,1,1.31-4.87,9.45,9.45,0,0,0,1.53-5.18,10.68,10.68,0,0,1,.91-4.11c.33-.69.49-.74,1.2-.48.35.14.44.28.34.67-.42,1.63-.74,3.29-1.19,4.91A16.36,16.36,0,0,1,1111.85,356.29Z" transform="translate(-625.05 -225.67)"/><path class="cls-3" d="M1115.22,347.9l.18.11a13.84,13.84,0,0,1-.39,1.6,6.82,6.82,0,0,0-.14,3.64,4.25,4.25,0,0,1-1,4.06,7.18,7.18,0,0,0-2.07,3.45c-.2.93-.26,1.89-.45,2.82a10.73,10.73,0,0,1-.53,1.5l-.11,0c.13-1.15.34-2.29.38-3.44a20.34,20.34,0,0,1,1.78-6.42c.64-1.67,1-3.44,1.53-5.17.17-.58.32-1.17.51-1.74C1114.92,348.12,1115.1,348,1115.22,347.9Z" transform="translate(-625.05 -225.67)"/><path class="cls-3" d="M1117.48,354.42c0,.6,0,1.26,0,1.92,0,.15-.24.31-.41.39s-.3-.16-.34-.29A1.74,1.74,0,0,1,1117.48,354.42Z" transform="translate(-625.05 -225.67)"/><path class="cls-3" d="M1149.31,337.25c.45.18.9.38,1.4.6l-.89,2a20.19,20.19,0,0,1-3.08,4.95,18,18,0,0,0-2.87,4.84,6.18,6.18,0,0,1-1,1.61,1.31,1.31,0,0,1-1.46.45,7.91,7.91,0,0,0-4.47,0,21.76,21.76,0,0,1-4.34.47,38.06,38.06,0,0,0-5.66.23,45.33,45.33,0,0,0-6,1.55,7.41,7.41,0,0,0-1.8,1.15c-.08.05-.14.16-.22.19a1,1,0,0,1-.51.11c-.09,0-.16-.26-.18-.41-.07-.6-.15-1.2-.2-1.8a5.24,5.24,0,0,1,0-1.12c.13-.91.4-1,1.31-1.13a28.28,28.28,0,0,0,3.15-.62c.78-.19,1.53-.47,2.31-.65a18,18,0,0,0,4.35-1.81,9.48,9.48,0,0,1,5.11-1.24c.71,0,1.4.16,2.11.2.93.05,1.29-.12,1.57-1a24.72,24.72,0,0,0,.82-3.29,32.84,32.84,0,0,1,1.94-7.42c.08-.2.16-.39.27-.62.77.41,1.53.79,2.27,1.2a10,10,0,0,0,5.43,1.39A1.78,1.78,0,0,1,1149.31,337.25Z" transform="translate(-625.05 -225.67)"/><path class="cls-3" d="M1150.07,325.94a18,18,0,0,1-7.29-2.08,12.92,12.92,0,0,0,3.12-9.21,9.67,9.67,0,0,0,5.95-3.63h-4.36s0,.08,0,.13l1.65.6a1.42,1.42,0,0,1-.21.22,10.1,10.1,0,0,1-5.6,1.67,13,13,0,0,1-1.83-.33,1.13,1.13,0,0,0-1.47.71,19.75,19.75,0,0,1-3.08,5.29,7.23,7.23,0,0,0-1.07,5.81c.17,1,.31,2,.45,3a1.94,1.94,0,0,1,0,.59c-.07.4-.29.48-.62.25a1,1,0,0,0-1.59.11,10.55,10.55,0,0,0-.95,1.15c-.42.54-.57.56-1.16.12.15-.46.69-.79.56-1.52l-.41.48c-.15.18-.27.42-.45.52a.67.67,0,0,1-.58-.06.56.56,0,0,1-.08-.5,7.16,7.16,0,0,1,.38-.64,2.08,2.08,0,0,0,.16-.46l-.18-.1a8.5,8.5,0,0,1-.57.77,2.46,2.46,0,0,1-.44.34c-.07-.21-.23-.44-.19-.63a10,10,0,0,1,.47-1.18c.1-.28.16-.56.24-.84l-.17-.08c-.27.19-.52.38-.79.56l-.13-.06a3,3,0,0,1,.36-.83,8.56,8.56,0,0,1,1.7-1.65,4.85,4.85,0,0,0,2.24-3.72,28.11,28.11,0,0,1,1.52-5.76,11.89,11.89,0,0,1,5.45-6.06,11.49,11.49,0,0,1,4-1.72l1.05-.14a7.36,7.36,0,0,0,2.14-.65,25.35,25.35,0,0,1,3-1,3.9,3.9,0,0,0-1.86-.39,9.81,9.81,0,0,1,1.37-.86,14.87,14.87,0,0,1,2.51-.86c1.47-.33,2.64-.92,2.79-2.62.63.06,1.22.09,1.56-.72.17.35.37.57.37.79a3.61,3.61,0,0,0,2.36,3.57s0,.05.09.11a6.41,6.41,0,0,0-3,3.15c-1.76-.91-3.07-2.33-4.68-3.35,1.13,1.14,2.24,2.32,3.42,3.42a6.75,6.75,0,0,0,1.49.77c.31.17.49.09.62-.23a5.08,5.08,0,0,1,2-2.21.41.41,0,0,1,.64.09,2.85,2.85,0,0,1,.86,2.25c-.08.67-.18,1.36-.32,2a3.26,3.26,0,0,1-.4.79l-.4-.67c-.11.73-.18,1.38-.32,2a7.24,7.24,0,0,1-1.85,3.23,43.18,43.18,0,0,0-6.81,10.15l-.11.22a6.56,6.56,0,0,0-2.77-2.05l-.13.12Z" transform="translate(-625.05 -225.67)"/><path class="cls-3" d="M1167.49,355.79c-.63.95-1.24,1.85-1.93,2.87a4.05,4.05,0,0,1,0-.76,15.19,15.19,0,0,1,.32-1.49C1166.13,355.35,1166.61,355.19,1167.49,355.79Z" transform="translate(-625.05 -225.67)"/><path class="cls-3" d="M1163.15,358.07a3.84,3.84,0,0,1-.77-1.52,39.66,39.66,0,0,0-2.88-8.26,6.92,6.92,0,0,1-.41-5.51,1.7,1.7,0,0,0-.68-2,32.64,32.64,0,0,0-3.16-2c-1.26-.7-2.6-1.29-3.91-1.91a.68.68,0,0,1-.46-.85,11.43,11.43,0,0,1,3.41-6.18,3,3,0,0,1,.35-.27c.82-.55,1-.55,1.78,0a24.2,24.2,0,0,1,2.08,1.47c1,.83,1.82,1.75,2.72,2.63a31.7,31.7,0,0,0,2.59,2.47,2.55,2.55,0,0,1,1,3,7.35,7.35,0,0,1-.3.94,5,5,0,0,0-.27,3.37,34.46,34.46,0,0,1,.6,6c.06,1.15.18,2.3.28,3.44a1.41,1.41,0,0,0,1.24,1.41,2,2,0,0,1,.46.19s0,.07,0,.11l-1.3.16-.56-.88a1.64,1.64,0,0,0,.17,1.5,2.19,2.19,0,0,1-.07,2.2,2.12,2.12,0,0,1-.92.77A.72.72,0,0,1,1163.15,358.07Z" transform="translate(-625.05 -225.67)"/><path class="cls-3" d="M1157,298a1.42,1.42,0,0,1,1-1.32,1.32,1.32,0,0,1,1.62.55c.21.36.38.75.6,1.21.76-.71,1.49-1.33,2.15-2,.2-.2.21-.57.31-.88H1166l.49,1.32.15.78a8.43,8.43,0,0,0,.85,2.84l-1.64.4c0,.05.33.28.39.39a1.2,1.2,0,0,1,.14.62c0,.08-.31.81-.31.81s-.28,1.27-.88,1.45a6.44,6.44,0,0,1-3.29-.11,9.85,9.85,0,0,1-2.44-.87,2.19,2.19,0,0,1-.77-3l-.48-.3A2.55,2.55,0,0,1,1157,298Z" transform="translate(-625.05 -225.67)"/><path class="cls-3" d="M1167.84,355.28c-.1-.55-.2-1.07-.3-1.67a.82.82,0,0,1,.86.76A.72.72,0,0,1,1167.84,355.28Z" transform="translate(-625.05 -225.67)"/><path class="cls-3" d="M1167.12,314.52c.31-.29.64-.56,1-.83.07-.06.23-.14.28-.11a1.49,1.49,0,0,1,.28.32,1.06,1.06,0,0,1-.12.24,10.62,10.62,0,0,1-1.1.91c-.1.07-.36-.07-.55-.11A1.69,1.69,0,0,1,1167.12,314.52Z" transform="translate(-625.05 -225.67)"/><path class="cls-3" d="M1161.91,312.53a1.1,1.1,0,0,1,.25.33c.34.86.66,1.72.95,2.59,0,.12-.11.34-.23.46-.5.49-1,.94-1.53,1.43a2,2,0,0,0-.29.58.94.94,0,0,0,.1.1,2.74,2.74,0,0,0,.48-.17c.56-.27,1.11-.54,1.65-.84a.46.46,0,0,1,.62.09c.31.3.64.59.95.88s.5.35.83,0c-.44,0-.57-.23-.54-.61.07-1.14.13-2.3.22-3.45a1.11,1.11,0,0,1,1-1,3.63,3.63,0,0,1,1.42.08,1.61,1.61,0,0,1-1.92.8c.31.53.55,1,.86,1.5s.59.51,1,.17.82-.72,1.22-1.08c.46.45.73,1.23.53,1.58a1.67,1.67,0,0,1-1.5.72c.32-.58,1.18-.76,1.27-1.65-.69.39-1.06,1.16-1.93.91-.2.92.94.76,1.09,1.47a4.11,4.11,0,0,0-2.53,1.78l1.45-.4.1.08a8.42,8.42,0,0,1-.84,1.21,4.51,4.51,0,0,1-3.17,1.52,1.42,1.42,0,0,1-1.31-.59,18.42,18.42,0,0,1-1-1.66c-.5-.94-1-1.89-1.45-2.79Z" transform="translate(-625.05 -225.67)"/><path class="cls-3" d="M1163.93,363.49a2.57,2.57,0,0,1-.87-2.7c.12-.35.34-.44.64-.2s.57.47.86.69a.48.48,0,0,0,.71,0,56.94,56.94,0,0,1,6.81-5.56,19.27,19.27,0,0,0,3.72-3.61,2.27,2.27,0,0,0,.22-.32l.21.09a1.59,1.59,0,0,1-.09.55,9.36,9.36,0,0,1-2.42,2.82c-1.35,1.06-2.75,2-4.11,3.09a33.11,33.11,0,0,0-4.94,4.44C1164.43,363,1164.17,363.25,1163.93,363.49Z" transform="translate(-625.05 -225.67)"/><path class="cls-3" d="M1176.47,352.29l.14,0a3.3,3.3,0,0,1-.2,1,11.06,11.06,0,0,1-1.56,2.39,52.83,52.83,0,0,1-4,3.57,18.4,18.4,0,0,0-3.5,3.61,3.62,3.62,0,0,1-3.39,1.41c.21-.3.33-.52.49-.7a44,44,0,0,1,7.29-6.39,16.32,16.32,0,0,0,4.32-4.17C1176.18,352.8,1176.32,352.55,1176.47,352.29Z" transform="translate(-625.05 -225.67)"/><path class="cls-3" d="M1240.44,326.61c-5.1-6.82-12.27-10.5-20.25-12.82-3.31-1-3.72-1.77-2.82-5.12,1.25-4.65-.08-8.86-2.63-12.71-4.48-6.74-11-10.73-18.53-13.24-3.1-1-6.34-1.64-9.51-2.44a48,48,0,0,0-19.33,1.71c-1.58.48-3,.47-4-1-5.32-7.41-12.82-11.52-21.42-13.73-10.4-2.67-20.69-2.43-30.59,2.21a21.78,21.78,0,0,0-10.85,10.15c-.87,1.77-2.15,2.18-4,1.75-10.06-2.26-20-2.12-29.45,2.36a29.4,29.4,0,0,0-6.69,4.42c-6.5,5.71-7.63,13.23-3.36,20.75,2,3.49,1.77,4.07-1.72,6.17a30.12,30.12,0,0,0-4.75,3.47c-6.42,5.9-7.38,14.18-2.51,21.56,4.5,6.82,11.13,10.79,18.7,13.35a47.19,47.19,0,0,0,20.39,2.24c1.68-.17,3,.11,3.71,1.8,3.16,8,9.32,12.95,16.92,16.12,13.4,5.58,26.77,5.95,39.84-1.18,1.69-.91,2.92-.29,4.29.74,13.48,10,28.27,12.17,44.13,6.92a24.18,24.18,0,0,0,11.13-7.52,15,15,0,0,0,3.71-11.08c-.21-2.7.75-3.7,3.5-3.75,7.89-.13,15.34-1.74,22-6.31C1245.15,345.28,1246.91,335.27,1240.44,326.61Zm-63,26.75a7.58,7.58,0,0,1-2.13,3.14c-1.43,1.33-2.93,2.61-4.45,3.87a22.64,22.64,0,0,0-3.08,3.26,3.92,3.92,0,0,1-3.55,1.47,1,1,0,0,1-1-.7,4.3,4.3,0,0,0-.55-.88,3.53,3.53,0,0,1-.54-3c0-.19.07-.54,0-.56a2.77,2.77,0,0,0-.94-.16c-.2,0-.38.24-.58.28a.58.58,0,0,1-.47-.14c-.06-.06,0-.32.07-.43a1.47,1.47,0,0,1,1.52-.55l.8.15a.75.75,0,0,1,.06-.13,3.68,3.68,0,0,0-.39-.3,1.44,1.44,0,0,1-.77-1.09,31.29,31.29,0,0,0-2.77-8.19,9,9,0,0,1-.68-6.83c.24-.85.15-1.07-.62-1.43-1.71-.81-3.43-1.56-5.15-2.35-.31-.13-.43,0-.56.26a27.17,27.17,0,0,1-3.27,5.86l-1.58,2.05a15.86,15.86,0,0,0-1.92,3.84,3.39,3.39,0,0,1-2.4,2.2,2.22,2.22,0,0,1-1.23,0,5.92,5.92,0,0,0-3.81,0,24,24,0,0,1-7.11.62,22.63,22.63,0,0,0-8.88,1.54,3.32,3.32,0,0,0-1.52,1.25.91.91,0,0,1-.66.39,4.28,4.28,0,0,0-1.83.55c.29.32.65.63.18,1s-.56-.27-1-.47a35.29,35.29,0,0,0-2.74,2.86,8.55,8.55,0,0,0-.8,2.11c-.35.86-.73,1.71-1.13,2.56a2.09,2.09,0,0,1-.55.64c-1.35,1.22-2.89.84-3.35-.9a9.39,9.39,0,0,1,1-7.47,8.2,8.2,0,0,0,1.47-3.37c.09-.87.09-1.75.15-2.62a8.92,8.92,0,0,1,.71-3.3,4.88,4.88,0,0,1,.6-1,1.55,1.55,0,0,1,2.06-.38,2.48,2.48,0,0,0,.93.22,1.6,1.6,0,0,1,1.37.68l.35.52a1.6,1.6,0,0,1,1.65-.31c.2.08.33.29.49.45-.16.13-.31.28-.47.39a4.92,4.92,0,0,1-.6.29l.87.32c.22.09.5.13.63.3.36.44.78.36,1.22.21a40.8,40.8,0,0,0,8.06-3.17,10.35,10.35,0,0,1,7.77-1.21.5.5,0,0,0,.66-.36,13.07,13.07,0,0,0,.5-2.1,32.21,32.21,0,0,1,3-10.87.89.89,0,0,0,0-.73,6.74,6.74,0,0,1,1-8.41,11,11,0,0,0,3-5.87,13.2,13.2,0,0,0,0-2.17l-3.55-.61a0,0,0,0,0,0,0,14.5,14.5,0,0,1-2.54,4.68,6,6,0,0,0-1.59,3.08,22.16,22.16,0,0,0,.2,3.25c.09.93.24,1.86.32,2.79a1.47,1.47,0,0,1-.59,1.4.44.44,0,0,0-.17.27.7.7,0,0,1-1.11.51,7.57,7.57,0,0,1-.82-.67c-.27.35-.54.72-.83,1.08a1.66,1.66,0,0,1-2.38.46c-.64-.38-1.24-.83-1.85-1.28a1,1,0,0,1-.39-1.26.37.37,0,0,0,0-.31,2.65,2.65,0,0,1,.35-3.33,11.75,11.75,0,0,1,2-1.78,3.75,3.75,0,0,0,1.54-2.7,26,26,0,0,1,1.42-6.08,11.9,11.9,0,0,1,4.23-5.48l2.43-1.68a8.65,8.65,0,0,1,5.09-1.61,1.91,1.91,0,0,0,1.45-.65,19.83,19.83,0,0,1,1.92-1.74,9.65,9.65,0,0,1,4.26-1.54,1.06,1.06,0,0,0,.89-1.59,23.8,23.8,0,0,1-1-3.23c-.46-2.42.57-4.3,2.49-5.77a7.36,7.36,0,0,1,4.13-1.55,8.06,8.06,0,0,1,4,.93,5.48,5.48,0,0,0,3.19.71,20.09,20.09,0,0,0,2.14-.5c.3-.08.59-.33.88,0a.81.81,0,0,1,.14,1,5.25,5.25,0,0,1-1.82,2.14,20.88,20.88,0,0,1-1.81,1.19c.16.63.38,1.32.51,2a1.92,1.92,0,0,1-.13,1,.71.71,0,0,0,.13.81c.22.26.43.54.64.82.47.64.32,1.16-.42,1.49l-.29.13a2.27,2.27,0,0,1-.43,1.81.86.86,0,0,0-.12.42,1.48,1.48,0,0,1-1.3,1.39c-1,.14-2.11.16-3.16.23H1162a19,19,0,0,1,.9,1.95,6.54,6.54,0,0,1-.11,3.37,1.4,1.4,0,0,0,.09.78,10.09,10.09,0,0,1,1.33,3.44c0-.32.08-.63.13-.95A2.37,2.37,0,0,1,1167,312a3.92,3.92,0,0,1,3.65,3.21,2,2,0,0,1-.19,1.33,5.92,5.92,0,0,1-1.41,1.9c-.13.09-.18.3-.25.46a6,6,0,0,1-4.17,3.9,3.14,3.14,0,0,1-3.91-1.6c-.54-1-1-2-1.44-3-.07-.16-.15-.31-.28-.55a48,48,0,0,0-5.84,8.54l.75.38a27.25,27.25,0,0,1,7.77,5.56,43.68,43.68,0,0,0,3.57,3.63,3.29,3.29,0,0,1,.89,3.46,8.38,8.38,0,0,1-.32,1.29,6.12,6.12,0,0,0-.2,3.32,46.42,46.42,0,0,1,.44,5.16c.08,1.08.14,2.17.21,3.25,0,.56.41.73.92.45.87-.49,1.22-.33,1.48.73.26-.12.52-.25.78-.34a.9.9,0,0,1,.4,0,1,1,0,0,1-.11.39c-.12.18-.29.33-.41.54a6.92,6.92,0,0,0,2.5-1c1-.64,2.06-1.24,3.09-1.86a1.48,1.48,0,0,1,1.95.24A1.73,1.73,0,0,1,1177.41,353.36Z" transform="translate(-625.05 -225.67)"/><path class="cls-3" d="M986.41,444.83a19.82,19.82,0,0,1-.15,2.6,1.06,1.06,0,0,1-.77.65,16.54,16.54,0,0,1-8.79-1.58,5.84,5.84,0,0,1-1-.68c-2-1.56-1.76-3.79.42-5,2.53-1.45,7.19-.72,9,1.54A12.15,12.15,0,0,1,986.41,444.83Z" transform="translate(-625.05 -225.67)"/><path class="cls-3" d="M977.15,466.24c-1,1.79-1.94,3.61-3,5.35-.45.73-1.24,1.6-2.16,1.15s-.52-1.56-.26-2.37a6.68,6.68,0,0,1,4-4.18,5.27,5.27,0,0,1,1.13-.23Z" transform="translate(-625.05 -225.67)"/><path class="cls-3" d="M979.67,455.64c-2.68,1.68-5.35,3.39-8.06,5a2.18,2.18,0,0,1-2.69.08c-.58-.48-.47-1.74.15-2.84a8.38,8.38,0,0,1,9.21-3.44,9.09,9.09,0,0,1,1.33.73Z" transform="translate(-625.05 -225.67)"/><path class="cls-3" d="M1043.47,456.22c-.29.26-.55.64-.9.76a9.16,9.16,0,0,1-6.34-.24c2.15-1.08,4.11-1.74,6.3-1.13A3.6,3.6,0,0,1,1043.47,456.22Z" transform="translate(-625.05 -225.67)"/><path class="cls-3" d="M1045.08,487.16a8.88,8.88,0,0,1-2.29-.5,14.26,14.26,0,0,1-5.73-6.06,75.66,75.66,0,0,1-3.07-7,2.36,2.36,0,0,1,0-.63,8.24,8.24,0,0,1,1.46.41,17.83,17.83,0,0,1,9.78,11.43A7.64,7.64,0,0,1,1045.08,487.16Z" transform="translate(-625.05 -225.67)"/><rect class="cls-4" x="948.88" y="275.4" width="8.7" height="80.61" rx="4.35" transform="translate(-569.09 540.84) rotate(-45)"/><rect class="cls-4" x="912.93" y="311.36" width="80.61" height="8.7" rx="4.35" transform="translate(-569.09 540.84) rotate(-45)"/><rect class="cls-4" x="1156.69" y="291.02" width="8.7" height="80.61" rx="4.35" transform="translate(-519.27 692.35) rotate(-45)"/><rect class="cls-4" x="1120.74" y="326.97" width="80.61" height="8.7" rx="4.35" transform="translate(-519.27 692.35) rotate(-45)"/></svg>