<svg id="图层_1" data-name="图层 1" xmlns="http://www.w3.org/2000/svg" viewBox="0 0 168.32 124.09"><defs><style>.cls-1{fill:#bcb88e;}</style></defs><title>download</title><path class="cls-1" d="M485,416.07l-22-22,6.16-6.38,11.42,11.43V363.33h8.79v35.82l11.43-11.43L507,394.1Zm-26.37,17.58a8.81,8.81,0,0,1-8.79-8.79V411.68h8.79v13.18h52.74V411.68h8.79v13.18a8.81,8.81,0,0,1-8.79,8.79Z" transform="translate(-400.86 -363.33)"/><path class="cls-1" d="M439.66,482.81v3h-38.8v-3H407V458h10.08c.17-1,.39-2.19.56-3.4h-15.5v-2.93H418c.17-1.33.3-2.62.39-3.74l3.49.34-.57,3.4h17v2.93H420.8c-.22,1.21-.44,2.37-.69,3.4H433.8v24.8ZM410,460.73v3.61h20.58v-3.61Zm20.58,6.11H410v3.44h20.58ZM410,476.49h20.58v-3.71H410Zm0,6.32h20.58V479H410Z" transform="translate(-400.86 -363.33)"/><path class="cls-1" d="M451.75,471.32V483.5c0,1.73-.43,2.59-1.42,3.1s-2.58.65-5.08.61a10.27,10.27,0,0,0-.9-3c1.72.09,3.27.09,3.7.05s.73-.18.73-.74V472.27L444,473.82l-.82-3.06c1.55-.43,3.53-1,5.64-1.68v-9.47H443.7v-3h5.08V448h3v8.61h4.31v3h-4.31v8.56l3.79-1.2.48,2.93Zm26.14,1.42a17.3,17.3,0,0,1-4.26,7.84,51.69,51.69,0,0,1,8.31,4.39l-2.11,2.45a58.51,58.51,0,0,0-8.7-4.78c-3.4,2.29-8,3.71-14.12,4.61a9.78,9.78,0,0,0-1.38-2.76c5.3-.56,9.26-1.59,12.23-3.22a90.47,90.47,0,0,0-8.79-3.19c1.12-1.47,2.42-3.36,3.66-5.34h-6.45V470h8.05a42,42,0,0,0,2.24-4.52l3,.61c-.56,1.24-1.25,2.58-2,3.91h15.5v2.76Zm4.7-7.45H456.84v-2.8h14.38a48.55,48.55,0,0,0,3.62-6.67l3,.81c-1.16,2-2.37,4.18-3.53,5.86h8.27Zm-1.08-10H458.34v-2.8h9.82a33.7,33.7,0,0,0-2-3.66l3-.52a31.34,31.34,0,0,1,2.37,4.18h10Zm-17,7.06a27.46,27.46,0,0,0-3.1-5.6l2.41-1a25.16,25.16,0,0,1,3.23,5.43ZM466,472.74a43.27,43.27,0,0,1-2.59,4c2.33.74,4.78,1.6,7.2,2.59a14.13,14.13,0,0,0,4-6.59Z" transform="translate(-400.86 -363.33)"/><path class="cls-1" d="M507.22,454.4V462l.56-.64a112,112,0,0,1,15.32,9l-2.23,3a102.52,102.52,0,0,0-13.65-8.74v22.48h-3.41V454.4H487.36v-3.23h38v3.23Z" transform="translate(-400.86 -363.33)"/><path class="cls-1" d="M566.77,463.31a56.71,56.71,0,0,1-6.5,14.77c1.2,3.7,2.79,5.77,4.65,5.77,1.07,0,1.5-1.85,1.76-6.89a7.13,7.13,0,0,0,2.5,1.64c-.52,6.41-1.55,8.35-4.52,8.35-2.8,0-4.91-2.15-6.5-5.81a37.68,37.68,0,0,1-6.21,6.28,11.89,11.89,0,0,0-2.23-2.19,30.08,30.08,0,0,0,7.23-7.5,85.47,85.47,0,0,1-2.5-17.44H530.34v-2.58h10.38v-3.66h-8.19v-2.58h8.19V448h3v3.45h7.58v2.58h-7.58v3.66h10.55c-.17-3.06-.25-6.33-.25-9.6h3.14c-.05,3.36,0,6.59.13,9.6h11.32v2.58H557.51a97,97,0,0,0,1.68,13.83,51.59,51.59,0,0,0,4.69-11.63ZM553,480.71c-2.58.3-5.17.56-7.75.81v5.64h-3v-5.38c-4.18.43-8.06.82-11.16,1.16l-.34-3c3.06-.21,7.06-.56,11.5-.94v-4.27h-5.6a6.58,6.58,0,0,0-3.45.61,18.75,18.75,0,0,0-1-2.93c.65-.13,1.3-1,2-2.16.35-.51.91-1.67,1.64-3.1H531v-2.62h6a34,34,0,0,0,1.6-4.18l3.14.86c-.43,1.12-.9,2.24-1.42,3.32H553v2.62H539.08c-.9,1.73-1.85,3.41-2.76,4.83h5.95v-3.49h3V472h6.8v2.75h-6.8v4c2.54-.22,5.21-.48,7.75-.73ZM564.7,456a30.83,30.83,0,0,0-5.21-5.64l2.28-1.46a25.86,25.86,0,0,1,5.3,5.42Z" transform="translate(-400.86 -363.33)"/></svg>