<?xml version="1.0" encoding="utf-8"?>
<!-- Generator: Adobe Illustrator 24.0.1, SVG Export Plug-In . SVG Version: 6.00 Build 0)  -->
<svg version="1.1" id="图层_1" xmlns="http://www.w3.org/2000/svg" xmlns:xlink="http://www.w3.org/1999/xlink" x="0px" y="0px"
	 viewBox="0 0 80.7 83.2" style="enable-background:new 0 0 80.7 83.2;" xml:space="preserve">
<style type="text/css">
	.st0{fill:#97C740;}
</style>
<title>未标题-2</title>
<path class="st0" d="M0,46.1c15.3-4.1,24.4-13.5,28.8-28.8C33,32.7,42.2,41.8,57.6,45.9c-15,4.5-24.9,13.3-28.9,29
	C24.4,59.6,15.3,50.4,0,46.1z"/>
<path class="st0" d="M46,17.3C55.2,14.8,60.7,9.2,63.3,0c2.5,9.3,8.1,14.8,17.4,17.2c-9,2.7-15,8-17.4,17.5
	C60.7,25.5,55.2,19.9,46,17.3z"/>
<path class="st0" d="M53.1,73c5.4-1.5,8.7-4.8,10.2-10.2c1.5,5.5,4.8,8.7,10.2,10.1c-5.3,1.6-8.8,4.7-10.2,10.3
	C61.8,77.8,58.6,74.6,53.1,73z"/>
</svg>
