<svg id="图层_1" data-name="图层 1" xmlns="http://www.w3.org/2000/svg" viewBox="0 0 166.25 130.44"><defs><style>.cls-1{fill:#bcb88e;}</style></defs><title>google</title><path class="cls-1" d="M975.42,521.56l44.65,45.36-17.45,17.47-23.29,23.26a6.18,6.18,0,0,1-.88.89c-.84.53-2,1.62-2.56,1.37a3.93,3.93,0,0,1-2.46-3.65q0-10.57,0-21.13,0-29.53,0-59.06A5.14,5.14,0,0,1,975.42,521.56Z" transform="translate(-930.25 -520.51)"/><path class="cls-1" d="M1035.75,552.06c-1.82,1.64-3.41,3-4.91,4.42-2.55,2.45-5.08,4.92-7.54,7.46-.84.87-1.37.86-2.19,0q-6.54-6.8-13.16-13.5-8.15-8.26-16.31-16.49-6-6.12-12.08-12.27a5.9,5.9,0,0,1-.5-.7l.32-.49Z" transform="translate(-930.25 -520.51)"/><path class="cls-1" d="M1056.59,565.19c-.19,2.42-1.13,3.64-2.55,4.43-5.48,3-11,6-16.48,9.1a1.63,1.63,0,0,1-2.34-.33c-3.31-3.45-6.66-6.87-10-10.28-.72-.73-.83-1.26,0-2.07,4-3.83,7.87-7.7,11.71-11.64.74-.76,1.3-.92,2.15-.44,5,2.79,10.06,5.5,15,8.43C1055.23,563.08,1056,564.49,1056.59,565.19Z" transform="translate(-930.25 -520.51)"/><path class="cls-1" d="M1022.07,569.35l11.63,11.45L984,608.05l-.38-.43Z" transform="translate(-930.25 -520.51)"/><path class="cls-1" d="M1002.16,639.46a3.2,3.2,0,0,1-.75-3.42c-.43,0-.8,0-1.18,0a5.91,5.91,0,0,1-5.16-3.06,5.14,5.14,0,0,1-.23-4.63,7.18,7.18,0,0,1,5.59-4.55,7.07,7.07,0,0,1,1.52-.16c2.69,0,5.38,0,8.07,0h.2l0,.06-1.36.81-.27.17a1.63,1.63,0,0,1-1.13.3c-.44,0-.87,0-1.31,0v.09c.27.3.57.58.81.9a6.15,6.15,0,0,1,.93,5.87,5.89,5.89,0,0,1-1.43,2.13c-.52.55-1.07,1.09-1.55,1.68a1.45,1.45,0,0,0,.2,2.07c.63.55,1.29,1.06,2,1.58a6.3,6.3,0,0,1,2.5,3.93,5.27,5.27,0,0,1-1.43,4.77,9.75,9.75,0,0,1-4.51,2.48,12.2,12.2,0,0,1-3.84.48,10,10,0,0,1-5.09-1.43,4.39,4.39,0,0,1-2-5.06,5.1,5.1,0,0,1,2.49-3.18,12.13,12.13,0,0,1,4.39-1.51C1000.45,639.62,1001.3,639.56,1002.16,639.46Zm-.36,9.9a8.32,8.32,0,0,0,2.58-.39,4,4,0,0,0,2.12-1.44,3.63,3.63,0,0,0-.57-4.68c-.64-.56-1.31-1.1-2-1.64a3.14,3.14,0,0,0-.77-.49,2,2,0,0,0-.81-.08c-.58,0-1.17.08-1.74.17a8.47,8.47,0,0,0-3.12,1.12,3.66,3.66,0,0,0,0,6.18A8.7,8.7,0,0,0,1001.8,649.36Zm3.28-17.9a8.94,8.94,0,0,0-.35-2.63,5.81,5.81,0,0,0-2.32-3.35,3,3,0,0,0-3.9.43,4.51,4.51,0,0,0-.88,3.54,7.55,7.55,0,0,0,1.86,4.08,3.56,3.56,0,0,0,2.54,1.4,2.67,2.67,0,0,0,2.71-1.56A4.35,4.35,0,0,0,1005.08,631.46Z" transform="translate(-930.25 -520.51)"/><path class="cls-1" d="M953.21,618.6c-.93.88-1.82,1.73-2.73,2.57a1.09,1.09,0,0,1-.43.15l-.93.26a12.09,12.09,0,0,1,.64-1.07c.17-.23.09-.36-.06-.52a9.08,9.08,0,0,0-2.13-1.73,8.42,8.42,0,0,0-4.42-1.23,9.37,9.37,0,0,0-4.39,1.07,8.38,8.38,0,0,0-2.17,1.56,9,9,0,0,0-2.35,4.15,12.38,12.38,0,0,0-.39,3.88,12,12,0,0,0,1,4,12.63,12.63,0,0,0,3,4.3,11.33,11.33,0,0,0,4.58,2.61,11.1,11.1,0,0,0,4,.39,8.13,8.13,0,0,0,3-.81.31.31,0,0,0,.15-.21c0-1.64,0-3.29,0-5a29,29,0,0,0-5.06.28l.32-.2a2.38,2.38,0,0,1,.3-.18l1.82-1a.65.65,0,0,1,.31-.08h7.1c-.26.3-.54.58-.77.9a2.94,2.94,0,0,0-.5,1.77c0,1.33,0,2.66,0,4,0,.22-.06.31-.27.36-1.61.39-3.21.82-4.83,1.15a30.44,30.44,0,0,1-3.45.47A16,16,0,0,1,939,640a11.88,11.88,0,0,1-4.42-2.25,11.34,11.34,0,0,1-3.13-4,12.72,12.72,0,0,1-1.15-4.24,12.15,12.15,0,0,1,.66-5.18,12.64,12.64,0,0,1,7.9-7.83,13.19,13.19,0,0,1,3.29-.68,20.28,20.28,0,0,1,6.54.55,11.68,11.68,0,0,1,4.12,1.88C952.94,618.35,953.06,618.46,953.21,618.6Z" transform="translate(-930.25 -520.51)"/><path class="cls-1" d="M973.45,631.48a8.66,8.66,0,0,1-2.17,5.92,8.52,8.52,0,0,1-4.84,2.64,9.24,9.24,0,0,1-4.92-.25,8.11,8.11,0,0,1-4.38-3.6,8.61,8.61,0,0,1-1.17-3.28,8.78,8.78,0,0,1,.27-3.57,8.34,8.34,0,0,1,2.2-3.76,8.63,8.63,0,0,1,3-1.9,9.3,9.3,0,0,1,3.46-.63,9.12,9.12,0,0,1,4.28,1,7.66,7.66,0,0,1,3.16,3.07,8.2,8.2,0,0,1,1.07,3.55C973.4,631,973.43,631.29,973.45,631.48Zm-3.63,1.59c0-.42,0-.85-.08-1.28a11.2,11.2,0,0,0-1.34-4.48,6.08,6.08,0,0,0-2.75-2.72,4.18,4.18,0,0,0-4.87,1,5.83,5.83,0,0,0-1.5,4.51,13.09,13.09,0,0,0,.55,3.16,10.84,10.84,0,0,0,2.24,4.32,4.17,4.17,0,0,0,3.88,1.5,3.91,3.91,0,0,0,3-2.14A7.78,7.78,0,0,0,969.82,633.07Z" transform="translate(-930.25 -520.51)"/><path class="cls-1" d="M984,623a9.16,9.16,0,0,1,5.4,1.79,7.76,7.76,0,0,1,2.9,4.5,9,9,0,0,1,.28,2.64,8.28,8.28,0,0,1-2.71,6,8.73,8.73,0,0,1-4.68,2.16,9.9,9.9,0,0,1-3.72-.08,7.69,7.69,0,0,1-3.5-1.81,8.5,8.5,0,0,1-2.85-5.4,8.69,8.69,0,0,1,.71-4.66,8,8,0,0,1,1.76-2.56,8.4,8.4,0,0,1,4.18-2.27C982.49,623.16,983.24,623.11,984,623Zm5,10.17c-.08-.74-.13-1.48-.24-2.21a9.89,9.89,0,0,0-2.12-5,4.79,4.79,0,0,0-3.37-1.8,4.06,4.06,0,0,0-3.14,1.18,5.48,5.48,0,0,0-1.72,4.2,11.33,11.33,0,0,0,.29,2.52,11.47,11.47,0,0,0,2.42,5.37,4.19,4.19,0,0,0,4,1.59,3.91,3.91,0,0,0,3.06-2.18A8.45,8.45,0,0,0,989,633.17Z" transform="translate(-930.25 -520.51)"/><path class="cls-1" d="M1041.81,623.39h1.89v2.43l.07,0,.38-.38a8.64,8.64,0,0,1,3.53-2.18,7.13,7.13,0,0,1,5,.34,6.75,6.75,0,0,1,3.47,3.41,9.37,9.37,0,0,1,.86,3.29,15.26,15.26,0,0,1-.06,3.31,8.49,8.49,0,0,1-2.1,4.85,6.18,6.18,0,0,1-3.25,1.8,8,8,0,0,1-4.06-.07,7.25,7.25,0,0,1-3.85-2.73v9h-1.92Zm1.91,8.3c0,1.11,0,2.22,0,3.33a1.14,1.14,0,0,0,.19.56,8.83,8.83,0,0,0,1.78,1.93,5.7,5.7,0,0,0,3.28,1.4,5.13,5.13,0,0,0,4.61-2.12,7.66,7.66,0,0,0,1.53-4.36,8.13,8.13,0,0,0-1.77-5.94,5,5,0,0,0-2.9-1.78,5.16,5.16,0,0,0-3.28.51,9.67,9.67,0,0,0-3.32,2.74.68.68,0,0,0-.12.4C1043.71,629.47,1043.72,630.58,1043.72,631.69Z" transform="translate(-930.25 -520.51)"/><path class="cls-1" d="M1065,627.78a4.75,4.75,0,0,1,.63-2,5.65,5.65,0,0,1,4.18-2.65,10,10,0,0,1,4.15.13,5.31,5.31,0,0,1,4.21,4.42,2.75,2.75,0,0,1,0,.41c0,2.88,0,5.75,0,8.63a7.87,7.87,0,0,0,.56,3.11c0,.08,0,.17.08.27-.7,0-1.39,0-2.07,0-.09,0-.23-.18-.26-.29-.2-.65-.37-1.3-.54-1.9-.43.36-.9.78-1.41,1.14a7.86,7.86,0,0,1-3.76,1.42,8.3,8.3,0,0,1-3.36-.29,4.31,4.31,0,0,1-3.09-4,4.39,4.39,0,0,1,.72-3.08,5.67,5.67,0,0,1,3.1-2,13.44,13.44,0,0,1,4.13-.54c1.19,0,2.38,0,3.57,0,.09,0,.26-.11.26-.16a17.44,17.44,0,0,0-.07-2.61,3.47,3.47,0,0,0-2.67-2.94,6.63,6.63,0,0,0-4.13.14,3,3,0,0,0-2.16,2.66c0,.08-.12.2-.18.2Zm11.13,5.44v-.59c0-.22.05-.47,0-.63s-.35,0-.54-.06h0c-1.25,0-2.49,0-3.74,0a7.55,7.55,0,0,0-3.53.92,3.13,3.13,0,0,0-1.82,3.35,2.82,2.82,0,0,0,.79,1.63,3.94,3.94,0,0,0,3,1,7.35,7.35,0,0,0,3.43-1,4.78,4.78,0,0,0,2.25-2.48A5.58,5.58,0,0,0,1076.08,633.22Z" transform="translate(-930.25 -520.51)"/><path class="cls-1" d="M1032.94,627.54l-1.69.7-5.33,2.14a6.57,6.57,0,0,1-1.08.43,11.62,11.62,0,0,1-1.56.16l-1.47.08c.21.66.36,1.32.6,1.94a8.58,8.58,0,0,0,2.12,3.19,7,7,0,0,0,3.59,2,5.81,5.81,0,0,0,2.81-.18c.82-.25,1.61-.56,2.41-.84-.13.16-.27.38-.44.56a7.45,7.45,0,0,1-4.33,2.44,9.26,9.26,0,0,1-4.31-.28,7.33,7.33,0,0,1-3.23-1.93,8.62,8.62,0,0,1-2.22-4.28,9.76,9.76,0,0,1-.22-2.85,8.54,8.54,0,0,1,2.7-5.83,7.29,7.29,0,0,1,3.62-1.79,8.37,8.37,0,0,1,4.49.28A5.86,5.86,0,0,1,1032.94,627.54Zm-11.1,3.44.32-.12c1.34-.57,2.7-1.13,4-1.73.88-.39,1.73-.83,2.59-1.26a.6.6,0,0,0,.38-.73,3.25,3.25,0,0,0-3.94-2.73,4,4,0,0,0-2.91,2.24,6.13,6.13,0,0,0-.57,3.32C1021.77,630.3,1021.81,630.62,1021.84,631Z" transform="translate(-930.25 -520.51)"/><path class="cls-1" d="M1080.05,623.38c.69,0,1.32,0,2,0,.06,0,.14.12.18.2.61,1.41,1.23,2.82,1.83,4.23s1.32,3.08,2,4.62c.53,1.24,1.08,2.48,1.62,3.72l.6,1.4c.17-.37.32-.69.46-1l1.84-4.39,2-4.66c.54-1.3,1.1-2.6,1.65-3.9a.3.3,0,0,1,.34-.22h2c-.16.39-.29.73-.44,1.06q-1.1,2.63-2.2,5.25c-.62,1.47-1.26,2.93-1.88,4.4s-1.18,2.78-1.76,4.17c-.73,1.74-1.47,3.48-2.19,5.22a6.27,6.27,0,0,1-1.53,2.3,4.64,4.64,0,0,1-3.37,1.33,3.68,3.68,0,0,1-1.63-.52.25.25,0,0,1-.08-.22c.14-.45.31-.9.46-1.31.44.08.87.18,1.3.22a1.55,1.55,0,0,0,1.12-.5,6.13,6.13,0,0,0,1.64-1.84c.41-.83.74-1.7,1.08-2.56a.59.59,0,0,0,0-.39c-.82-2-1.66-4-2.49-6s-1.65-3.92-2.47-5.87C1081.38,626.55,1080.73,625,1080.05,623.38Z" transform="translate(-930.25 -520.51)"/><path class="cls-1" d="M1011.29,639.74c.24-.39.49-.77.71-1.16a1.11,1.11,0,0,0,.1-.51c0-1.32,0-2.65.07-4,0-1.69,0-3.39.06-5.09,0-1.34,0-2.68,0-4l.06-4.06.06-4c0-.33,0-.66.06-1h-2.58l0,0c.13-.08.25-.17.39-.24l1.68-.94a.92.92,0,0,1,.39-.11h5a11,11,0,0,0-.91.75,2.5,2.5,0,0,0-.58,1.65c-.07,1.9-.11,3.8-.14,5.7s0,4.07-.06,6.11l-.06,5.26c0,1.06,0,2.12-.05,3.18a1.41,1.41,0,0,0,1.41,1.56l1.37.12a3.75,3.75,0,0,1,.37.09l-1.08.74a.4.4,0,0,1-.22,0h-6.12Z" transform="translate(-930.25 -520.51)"/><path class="cls-1" d="M1059.55,617h1.9v23.13h-1.9Z" transform="translate(-930.25 -520.51)"/></svg>