<?xml version="1.0" encoding="utf-8"?>
<!-- Generator: Adobe Illustrator 24.0.1, SVG Export Plug-In . SVG Version: 6.00 Build 0)  -->
<svg version="1.1" id="图层_1" xmlns="http://www.w3.org/2000/svg" xmlns:xlink="http://www.w3.org/1999/xlink" x="0px" y="0px"
	 viewBox="0 0 24 24" style="enable-background:new 0 0 24 24;" xml:space="preserve">
<style type="text/css">
	.st0{fill:#BCB88E;}
</style>
<path class="st0" d="M11.9,18c0.4,0,0.6-0.1,0.9-0.4s0.4-0.5,0.4-0.9s-0.1-0.6-0.4-0.9c-0.2-0.2-0.5-0.4-0.9-0.4
	c-0.3,0-0.6,0.1-0.9,0.4c-0.2,0.2-0.4,0.5-0.4,0.9s0.1,0.6,0.4,0.9C11.3,17.9,11.6,18,11.9,18z M11.1,14.1h1.9c0-0.6,0.1-1,0.2-1.3
	c0.1-0.3,0.5-0.8,1.1-1.3c0.4-0.4,0.8-0.8,1-1.2s0.4-0.9,0.4-1.4c0-0.9-0.3-1.7-1-2.2C13.8,6.2,13,6,12.1,6c-0.9,0-1.7,0.3-2.3,0.8
	s-1,1.1-1.2,1.8l1.6,0.6c0.1-0.3,0.3-0.6,0.6-1c0.3-0.3,0.7-0.5,1.3-0.5c0.5,0,0.9,0.1,1.2,0.4c0.3,0.3,0.4,0.6,0.4,1
	c0,0.3-0.1,0.6-0.3,0.9c-0.2,0.3-0.5,0.6-0.8,0.8c-0.7,0.7-1.2,1.1-1.4,1.5S11.1,13.3,11.1,14.1z M12,22c-1.4,0-2.7-0.3-3.9-0.8
	S5.8,20,4.9,19.1c-0.9-0.9-1.6-2-2.1-3.2S2,13.4,2,12s0.3-2.7,0.8-3.9S4,5.8,4.9,4.9s2-1.6,3.2-2.1S10.6,2,12,2s2.7,0.3,3.9,0.8
	s2.3,1.2,3.2,2.1s1.6,2,2.1,3.2C21.7,9.3,22,10.6,22,12s-0.3,2.7-0.8,3.9c-0.5,1.2-1.2,2.3-2.1,3.2c-0.9,0.9-2,1.6-3.2,2.1
	S13.4,22,12,22z"/>
</svg>
