<svg id="图层_1" data-name="图层 1" xmlns="http://www.w3.org/2000/svg" viewBox="0 0 713.99 585.07"><defs><style>.cls-1{fill:#1d2228;}.cls-2{font-size:52px;}.cls-2,.cls-4{fill:#ffe;}.cls-2,.cls-4,.cls-8{font-family:SourceHanSansSC-Regular-GBpc-EUC-H, Source Han Sans SC;}.cls-3{fill:#97c740;}.cls-4,.cls-8{font-size:36px;}.cls-5,.cls-7,.cls-9{fill:none;stroke-miterlimit:10;stroke-width:3px;}.cls-5,.cls-7{stroke:#f9762d;}.cls-6,.cls-8{fill:#f9762d;}.cls-7{stroke-dasharray:12;}.cls-9{stroke:#80918c;}.cls-10{fill:#80918c;}</style></defs><title>未标题-2</title><path class="cls-1" d="M1066.2,445.3c-9.66,30.47-41.83,55.92-69.16,72.51-28.37,16.77-51.89,24.69-68.19,24.43-16.68-.47-29.66-11.42-47.52-28.78-16.81-17.33-38.49-41.06-48.48-66.27-21.17-50.55,25.72-94.55,96-96.95C998.41,346.87,1088.06,383.06,1066.2,445.3Z" transform="translate(-579.36 -350.03)"/><text class="cls-2" transform="translate(311.69 105.09)">目标</text><rect class="cls-3" x="9.49" y="340.22" width="159" height="116" rx="5.73"/><rect class="cls-3" x="189.16" y="340.22" width="159" height="116" rx="5.73"/><rect class="cls-3" x="368.82" y="340.22" width="159" height="116" rx="5.73"/><rect class="cls-3" x="548.49" y="340.22" width="159" height="116" rx="5.73"/><text class="cls-4" transform="translate(34.99 409.98)">任务一</text><text class="cls-4" transform="translate(214.66 409.98)">任务二</text><text class="cls-4" transform="translate(394.32 409.98)">任务三</text><text class="cls-4" transform="translate(573.99 409.98)">任务四</text><line class="cls-5" x1="9.49" y1="502.22" x2="548.19" y2="502.22"/><path class="cls-6" d="M1145.65,852.24c-8.52,3.17-19.09,8.56-25.64,14.27l5.16-14.27L1120,838C1126.56,843.69,1137.13,849.09,1145.65,852.24Z" transform="translate(-579.36 -350.03)"/><line class="cls-7" x1="548.49" y1="502.72" x2="713.99" y2="502.72"/><line class="cls-5" x1="9.99" y1="490.72" x2="9.99" y2="502.72"/><text class="cls-8" transform="translate(0 547.34)">0</text><line class="cls-5" x1="99.69" y1="491.22" x2="99.69" y2="503.22"/><text class="cls-8" transform="translate(89.7 547.34)">1</text><line class="cls-5" x1="189.39" y1="491.22" x2="189.39" y2="503.22"/><text class="cls-8" transform="translate(179.4 547.34)">2</text><line class="cls-5" x1="279.09" y1="491.22" x2="279.09" y2="503.22"/><text class="cls-8" transform="translate(264.08 535.34)">...</text><line class="cls-5" x1="369.53" y1="491.22" x2="369.53" y2="503.22"/><text class="cls-8" transform="translate(341.56 547.34)">n-2</text><line class="cls-5" x1="458.49" y1="491.22" x2="458.49" y2="503.22"/><text class="cls-8" transform="translate(431.26 547.34)">n-1</text><text class="cls-8" transform="translate(537.19 547.34)">n</text><line class="cls-9" x1="394.19" y1="213.5" x2="439.99" y2="297.12"/><path class="cls-10" d="M1028.05,663c-6.87-6-16.68-12.63-24.83-15.64l15-2.33,10-11.37C1026.38,642.18,1026.72,654,1028.05,663Z" transform="translate(-579.36 -350.03)"/><line class="cls-9" x1="485.19" y1="155.5" x2="615.54" y2="299.57"/><path class="cls-10" d="M1207.05,663c-8.06-4.2-19.15-8.42-27.79-9.44l14-5.75,7.11-13.4C1200.58,643.14,1203.67,654.59,1207.05,663Z" transform="translate(-579.36 -350.03)"/><line class="cls-9" x1="307.19" y1="213.5" x2="275.22" y2="296.11"/><path class="cls-10" d="M848.05,663c.12-9.09-1.09-20.89-4.06-29.06l11.45,10,15.16.33C862.91,648.31,854.07,656.22,848.05,663Z" transform="translate(-579.36 -350.03)"/><line class="cls-9" x1="248.19" y1="155.5" x2="101.57" y2="300.28"/><path class="cls-10" d="M668.05,663c3.84-8.24,7.57-19.5,8.22-28.17l6.35,13.78,13.7,6.52C687.64,655.7,676.33,659.29,668.05,663Z" transform="translate(-579.36 -350.03)"/></svg>