<svg id="图层_1" data-name="图层 1" xmlns="http://www.w3.org/2000/svg" viewBox="0 0 20 20"><defs><style>.cls-1{fill:#97c740;}</style></defs><title>未标题-5</title><path class="cls-1" d="M760.49,286.32a10.06,10.06,0,0,1-3.9-.8,9.42,9.42,0,0,1-5.3-5.3,9.91,9.91,0,0,1,0-7.8,9.42,9.42,0,0,1,5.3-5.3,9.91,9.91,0,0,1,7.8,0,9.42,9.42,0,0,1,5.3,5.3,9.91,9.91,0,0,1,0,7.8,9.42,9.42,0,0,1-5.3,5.3A10.06,10.06,0,0,1,760.49,286.32Zm0-2a11.78,11.78,0,0,0,1.1-1.9,13.06,13.06,0,0,0,.8-2.1h-3.8a18,18,0,0,0,.8,2.1A18.58,18.58,0,0,0,760.49,284.32Zm-2.6-.5a8.86,8.86,0,0,1-.8-1.7l-.6-1.8h-3a9.62,9.62,0,0,0,1.8,2.2A7.07,7.07,0,0,0,757.89,283.82Zm5.2,0a7.68,7.68,0,0,0,2.5-1.4,7.87,7.87,0,0,0,1.8-2.2h-2.9a6.36,6.36,0,0,1-.6,1.8A7.5,7.5,0,0,1,763.09,283.82Zm-10.3-5.5h3.4a3.4,3.4,0,0,1-.1-1v-2c0-.3.1-.7.1-1h-3.4c-.1.3-.1.7-.2,1a3.08,3.08,0,0,0-.1,1,3.4,3.4,0,0,0,.1,1A3.55,3.55,0,0,0,752.79,278.32Zm5.4,0h4.7a3.4,3.4,0,0,0,.1-1v-2c0-.3-.1-.7-.1-1h-4.7a3.4,3.4,0,0,0-.1,1v2A3.4,3.4,0,0,0,758.19,278.32Zm6.7,0h3.4c.1-.3.1-.7.2-1s.1-.7.1-1a3.08,3.08,0,0,0-.1-1,3.55,3.55,0,0,0-.2-1h-3.4c0,.3.1.7.1,1v2A3.4,3.4,0,0,0,764.89,278.32Zm-.5-6h2.9a9.62,9.62,0,0,0-1.8-2.2,7.68,7.68,0,0,0-2.5-1.4,8.86,8.86,0,0,1,.8,1.7A8.24,8.24,0,0,1,764.39,272.32Zm-5.8,0h3.8a18,18,0,0,0-.8-2.1,18.58,18.58,0,0,0-1.1-1.9,11.78,11.78,0,0,0-1.1,1.9A18,18,0,0,0,758.59,272.32Zm-5,0h3a6.36,6.36,0,0,1,.6-1.8c.3-.6.4-1.2.7-1.8a7.68,7.68,0,0,0-2.5,1.4A9.62,9.62,0,0,0,753.59,272.32Z" transform="translate(-750.49 -266.32)"/></svg>