<svg id="图层_1" data-name="图层 1" xmlns="http://www.w3.org/2000/svg" viewBox="0 0 1024.09 1024.09"><defs><style>.cls-1{fill:#1d2228;}.cls-2{fill:#fff;}.cls-3{fill:#1a2610;}.cls-4{fill:#97c740;}.cls-5{fill:#6d9331;}.cls-6{fill:#d8e8e5;}.cls-7{fill:#b1c4c0;}.cls-8{fill:#051a31;}.cls-9{fill:none;stroke:#051a31;stroke-linecap:round;stroke-linejoin:round;stroke-width:11.56px;}</style></defs><title>未标题-2</title><rect class="cls-1" width="1024.09" height="1024.09"/><polygon class="cls-2" points="857.09 0 512.05 1024.09 120.84 1024.09 707.65 0 857.09 0"/><path class="cls-3" d="M903.74,803.5a597.41,597.41,0,0,1-115.19,245H777.44a7,7,0,0,1,0-8.66A583.35,583.35,0,0,0,890,800.56a7,7,0,0,1,13.75,2.94Z" transform="translate(-447.5 -24.36)"/><path class="cls-4" d="M967.84,738.66c-19,42.72-53.25,63.12-65,69.44,2-8.49,5.14-21.07,9.78-36.1,16.17-52.23,35.6-86.43,33.73-87.39-1.39-.73-12.82,18.25-19.89,31.58a246.37,246.37,0,0,0-14.73,32.35c-10.67,29-12.39,38.74-14.53,38.57-4.83-.49-15.65-54.18,8.31-104.64,18.24-38.35,48.5-57.93,61.09-65.12C970.54,626.15,993.82,680.16,967.84,738.66Z" transform="translate(-447.5 -24.36)"/><path class="cls-5" d="M973.18,724.68s-26.56,46.11-82,40.13l-5,16.18,11.34,29.2,14.14.64,36.65-27.6,31.12-52.73Z" transform="translate(-447.5 -24.36)"/><path class="cls-3" d="M966.61,617.35c3.93,8.8,27.21,62.81,1.23,121.31-19,42.72-53.25,63.12-65,69.44,2-8.49,5.14-21.07,9.78-36.1,16.17-52.23,35.6-86.43,33.73-87.39l-.09,0c-1.73,0-12.87,18.53-19.8,31.6a246.37,246.37,0,0,0-14.73,32.35c-10.57,28.71-12.36,38.57-14.48,38.57h0c-4.83-.49-15.65-54.18,8.31-104.64,18.24-38.35,48.5-57.93,61.09-65.12m0-14.06a14.13,14.13,0,0,0-7,1.85c-20.62,11.79-48.94,33.73-66.8,71.3-12.87,27.08-16,53.62-16.31,71.12-.37,19.16,2.37,36.81,7,45a16.87,16.87,0,0,0,7,7q-.66,2.71-1.29,5.41a14.07,14.07,0,0,0,20.35,15.57c18.35-9.88,52-32.9,71.17-76.12,12-27.08,16-56.33,11.68-86.94a174,174,0,0,0-12.92-45.81A14,14,0,0,0,971,604a14.24,14.24,0,0,0-4.36-.69Z" transform="translate(-447.5 -24.36)"/><path class="cls-4" d="M836.64,904.74c-39.83,8.12-90-38.77-106.71-92.43C774,803.18,827.08,849.17,836.64,904.74Z" transform="translate(-447.5 -24.36)"/><path class="cls-5" d="M748.52,851.26s41.69,50.31,85.79,43l8.17,14.44-23.81,5.18-40.92-20.78L753.57,866.5Z" transform="translate(-447.5 -24.36)"/><path class="cls-3" d="M741.44,811.15c41.33,0,86.46,42.79,95.2,93.59a46.36,46.36,0,0,1-9.28.92c-38,0-82-43.79-97.43-93.35a56.89,56.89,0,0,1,11.51-1.16m0-9.72v0A66.88,66.88,0,0,0,728,802.79a9.72,9.72,0,0,0-7.31,12.41,167.73,167.73,0,0,0,42.75,69.35c20.51,19.88,43.22,30.83,64,30.83a56.25,56.25,0,0,0,11.22-1.11,9.72,9.72,0,0,0,7.64-11.17c-4.53-26.38-18.09-51.65-38.18-71.17-19.94-19.39-44.21-30.5-66.59-30.5Z" transform="translate(-447.5 -24.36)"/><path class="cls-4" d="M899.28,887.92c7.21-27.63,49.39-45.08,85.46-39.31C976.86,879.21,934.32,898.79,899.28,887.92Z" transform="translate(-447.5 -24.36)"/><path class="cls-5" d="M982.87,854.22s-44.57,21-63.56,8l-21.23,8.62-.76,20.18,42.21,6.33,41.87-23.47Z" transform="translate(-447.5 -24.36)"/><path class="cls-3" d="M970.56,847.51a90.4,90.4,0,0,1,14.18,1.1c-6.39,24.79-35.51,42.34-65,42.34a69.34,69.34,0,0,1-20.5-3c6.28-24.07,39.09-40.41,71.28-40.41m0-9.72v0h0a106.19,106.19,0,0,0-50,12.36c-16.14,8.8-27,21.34-30.68,35.31a9.72,9.72,0,0,0,6.53,11.74,78.53,78.53,0,0,0,23.38,3.47c35.11,0,67.08-21.34,74.37-49.63a9.73,9.73,0,0,0-7.87-12,100.17,100.17,0,0,0-15.72-1.22Z" transform="translate(-447.5 -24.36)"/><path class="cls-6" d="M934.67,1048.45H588.94l5.92-4.43a46,46,0,0,1,27.61-9.2,46,46,0,0,0,26.71-8.53h0l15.81-8,24.2-12.2a181.47,181.47,0,0,1,124.54-14.3c1.76.43,3.52.88,5.26,1.36a181.69,181.69,0,0,1,35.16,13.73Z" transform="translate(-447.5 -24.36)"/><polygon class="cls-7" points="141.44 1024.09 147.36 1019.66 159.63 1010.46 189.69 1010.46 201.68 1001.93 201.71 1001.92 213.63 993.44 217.52 993.95 227.71 995.28 342.8 1010.31 394.48 1017.06 399.01 1024.09 141.44 1024.09"/><path class="cls-8" d="M941.34,1048.45H922.08L851.53,1012a175.76,175.76,0,0,0-159.71-.76l-16.61,8.37-23.05,11.62a51.6,51.6,0,0,1-29.69,9.34,40.56,40.56,0,0,0-23.89,7.85h-16a5.72,5.72,0,0,1,2.28-4.16l6.54-4.9A52.21,52.21,0,0,1,622.47,1029a40.09,40.09,0,0,0,23.36-7.46,7.09,7.09,0,0,1,.75-.45l40-20.18a187.64,187.64,0,0,1,170.21.81l81.4,42A5.77,5.77,0,0,1,941.34,1048.45Z" transform="translate(-447.5 -24.36)"/><line class="cls-9" x1="362.5" y1="1000.93" x2="352.55" y2="1000.93"/><line class="cls-9" x1="295.55" y1="983.13" x2="290.57" y2="983.13"/></svg>