<svg id="图层_1" data-name="图层 1" xmlns="http://www.w3.org/2000/svg" viewBox="0 0 166.39 137.88"><defs><style>.cls-1{fill:#bcb88e;}</style></defs><title>未标题-4</title><path class="cls-1" d="M529.49,416.29c.48-7.67-.17-15.61,1.63-23,6.07-24.73,35.61-36.48,57-19.92,12.21,9.48,16.93,22.3,13.36,37.2-3.5,14.64-13.36,23.89-28.12,27.31a23.64,23.64,0,0,1-10.15,0c-3.9-.86-6-5.31-5.33-9.46.55-3.49,3.95-6.35,7.83-6.6,11.7-.73,19.88-8.91,19.8-19.82-.07-9.84-8.6-18.69-18-19.21-11.25-.62-20.42,8.47-20.38,18.05.06,11.08,0,22.15-.1,33.23,0,5.91-3.36,9.85-8.22,10.05-4.65.19-8.57-3-8.72-7.69-.21-6.71-.05-13.44-.05-20.16Z" transform="translate(-482.96 -365.72)"/><path class="cls-1" d="M584.53,469.77l-3.37-.42c-1.62-4.08,1.74-3.14,3.69-3.74.18-2.09.36-4.15.55-6.43l4.93-.34.47,7.11c2.1,0,4.05.05,6,0,3.27-.09,4.91,1.69,4.94,4.72.11,9,.13,17.93,0,26.89-.06,4.09-6.89,7.66-10.11,5.29-.79-.58-.74-2.28-1.23-4,5,.82,5.77-1.46,5.61-5.25-.26-6.46,0-12.94,0-19.42.05-4.7-.24-5-5.27-4.2-.63,11.91-.71,24.09-11.31,33.48V497.4l-20.66,3c-.13-2.52-1.18-4.64,1.89-5.66.5-.16.6-2,.6-3.05.05-8,0-15.93.05-23.9,0-5.67,1.44-7,7.09-7,3.22,0,6.44,0,10.26,0,0,3.63,0,7,0,10.48,0,6-.06,11.95.14,17.92.06,1.65,1,3.27,1.69,5.48C584.07,489.77,585.56,479.58,584.53,469.77ZM573.7,494.18v-6.47h-6.8v7.41ZM567,476.45v6.39h6.64v-6.39Zm6.71-4.68V465.5c-7-1.2-8-.23-6.46,6.27Z" transform="translate(-482.96 -365.72)"/><path class="cls-1" d="M633.94,466.35v6.33c3.53,0,7,.16,10.41-.05,3.16-.2,4.48.8,3.4,4.41H634v7.39h15.32V489H634.24c-2.16,14.76-2.16,14.76-13.36,14,0-1.24,0-2.5,0-3.77,6.13-1,6.13-1,5.47-10.08H609.57l-.24-4.39h17v-7.68H611.78v-4.4H626.4V466H611v-5h37.77c.5,2,.57,4.12-3.44,4.25C641.64,465.39,638,466,633.94,466.35Z" transform="translate(-482.96 -365.72)"/><path class="cls-1" d="M534.09,486.74v-5.62c2.72-.26,5.36-.18,7.82-.8,4.14-1,5.37-3.44,4.68-8.29-.51-3.53-3.15-4.45-6.17-4.68a50.68,50.68,0,0,0-5.23,0c-3.87.1-5.86,2.11-5.87,6.08,0,8.34,0,16.68,0,25v3.78H522c0-8.77,0-17.32,0-25.88a34.36,34.36,0,0,1,.64-7.73,9,9,0,0,1,9.2-7.12c4.57,0,9.29-.32,13.67.69,7,1.6,9.29,6.32,8.43,14.65-.52,5-5.32,9.41-11,9.86C540.16,486.93,537.29,486.74,534.09,486.74Z" transform="translate(-482.96 -365.72)"/><path class="cls-1" d="M489.7,502.27H483c0-7.21,0-14.26,0-21.3,0-3.11,0-6.22,0-9.33,0-6.25,3.92-10.15,10.11-10.16,4,0,8-.38,11.91.17,6.11.88,10.35,6.64,10,12.75-.33,6.78-4.86,11.74-11.49,12.3-2.93.25-5.9,0-9,0v-5.52a66.84,66.84,0,0,0,8.38-1.07c3.53-.9,4.94-3.47,4.6-7s-2.43-5.5-6-5.8c-.37,0-.74,0-1.11,0-9.63-.21-10.67.8-10.67,10.39Z" transform="translate(-482.96 -365.72)"/><path class="cls-1" d="M566.14,410.62a8,8,0,0,1-8.32-8.43c0-4.65,4-8.7,8.43-8.57s8.94,4.41,8.53,8.67C574.32,407.07,571.31,410.74,566.14,410.62Z" transform="translate(-482.96 -365.72)"/></svg>