<svg id="图层_1" data-name="图层 1" xmlns="http://www.w3.org/2000/svg" viewBox="0 0 147.02 134.97"><defs><style>.cls-1{fill:#bcb88e;}</style></defs><title>wandou</title><path class="cls-1" d="M809,572.75a303,303,0,0,0,70.36,70.31,58.9,58.9,0,0,1-22.05.28c2.33-8.57-1.73-15.35-7-18.47a15.89,15.89,0,0,0-19.58,2.63c-1.59-.83-3.08-2.09-4.71-2.33-3.16-.47-4.63-2.69-6.27-4.86A59.24,59.24,0,0,1,808.8,596a57.79,57.79,0,0,1-.82-17.06c.2-2,.46-4,.69-6.08Z" transform="translate(-770 -572.75)"/><path class="cls-1" d="M830.23,644.18c-5.43,6.26-12.89,4.71-16.5.71a10.69,10.69,0,0,1,1.34-15.61c4.17-3.3,11.08-3.53,15.63,2.61a13.21,13.21,0,0,1,15.25-6,13.18,13.18,0,0,1-.34,25.33A13.22,13.22,0,0,1,830.23,644.18Zm7-4.1c-.18,3.5,3,6.7,6.63,6.85a7,7,0,0,0,7.29-6.85Zm-22.72-2.69a5.42,5.42,0,0,0,2.49,5.78,5.54,5.54,0,0,0,6.11.18,5.07,5.07,0,0,0,2.74-4Zm27.26-3.27a2,2,0,1,0-4-.08,2,2,0,0,0,4,.08Zm7.59,2.35a1.78,1.78,0,0,0,1.92-1.78,1.83,1.83,0,0,0-1.8-2,1.87,1.87,0,0,0-2,1.86A1.82,1.82,0,0,0,849.35,636.47Zm-23.05-1.71a1.66,1.66,0,1,0-3.32.17,1.51,1.51,0,0,0,1.68,1.54A1.58,1.58,0,0,0,826.3,634.76Zm-8.23-1.37c-.13-.84-.52-1.41-1.42-1.43-.74,0-1.61.87-1.48,1.55a1.41,1.41,0,0,0,1.54,1.31C817.67,634.78,818,634.22,818.07,633.39Z" transform="translate(-770 -572.75)"/><path class="cls-1" d="M819.82,581.58a6.83,6.83,0,0,1,5.82,2.2,7,7,0,0,1,1.59,5.71c7.44-1.22,13.22,4.33,11.35,12.19,7.29-1.58,13.1,4.25,11.51,11.61,3.52-.84,6.76-.46,9.48,2.11s3.34,5.75,2.63,9.38a6.61,6.61,0,0,1,6.77,2.39,6.48,6.48,0,0,1,1.39,4.92A297.84,297.84,0,0,1,819.82,581.58Z" transform="translate(-770 -572.75)"/><path class="cls-1" d="M904.44,686.53h5.22c-.28,1.8-.54,3.51-.84,5.42H917v3.8H897a9.41,9.41,0,0,0,4.12,4.58,22.1,22.1,0,0,0,9.07,2.85c2.23.27,4.46.41,6.8.61v3.6c-6.78.81-19.62-1.26-23.6-10.16a14.7,14.7,0,0,1-5.78,6.51A27.34,27.34,0,0,1,876,707.3c-2,.2-4,.27-6.16.41v-3.77c3.37-.45,6.71-.75,10-1.37a14.3,14.3,0,0,0,8.65-4.68,7,7,0,0,0,.64-.8c.2-.32.36-.68.63-1.21H869.89V692H878l-.86-5.42h5.25l.8,5.28h7.45V683H871.37v-3.88h19.28v-2.85h5.25v2.8h19.62v3.76H896.06v9.09c2.32,0,4.69.05,7.06-.06.27,0,.62-.88.72-1.39C904.11,689.16,904.25,687.82,904.44,686.53Z" transform="translate(-770 -572.75)"/><path class="cls-1" d="M861.48,693.13h-36V678.22h36Zm-31-3.84h25.68V682.1H830.51Z" transform="translate(-770 -572.75)"/><path class="cls-1" d="M787.57,703.78h6.16c2.63,0,2.63,0,2.63-2.7v-7.23h-4.05v4.25h-3.85v-18h12.21c0,.51.07,1,.07,1.54q0,10.27,0,20.55c0,3.32-1.81,5.12-5.14,5.12-2.2,0-4.41,0-6.61,0-1.06,0-1.56-.25-1.43-1.39A21.33,21.33,0,0,0,787.57,703.78Zm4.74-13.62h4v-6.27h-4Z" transform="translate(-770 -572.75)"/><path class="cls-1" d="M803.64,680.06h12v17.25h-7.8c0,2-.06,3.69,0,5.42,0,.95.8,1.07,1.61,1.06,2.33,0,4.67,0,7,0a2.58,2.58,0,0,1,.15.55c0,3.61.41,2.89-2.9,2.95q-2.79,0-5.58,0a4.41,4.41,0,0,1-4.66-4.4c-.07-7.48,0-15,0-22.44C803.47,680.35,803.55,680.26,803.64,680.06Zm7.89,14v-10.1h-3.64V694Z" transform="translate(-770 -572.75)"/><path class="cls-1" d="M856.87,703.51h8.74v3.81H821.14v-3.77H830c-.35-2.13-.68-4.07-1-6.2,1.55,0,3-.06,4.45,0,.3,0,.74.58.82,1,.28,1.37.37,2.79.68,4.15a1.55,1.55,0,0,0,1.06,1c5.24.06,10.47,0,15.8,0,.36-2,.71-4,1.08-6.08h5C857.52,699.43,857.2,701.39,856.87,703.51Z" transform="translate(-770 -572.75)"/><path class="cls-1" d="M916.21,670v3.78h-45.7V670h8c.29-2.37.29-2.37,2.62-2.37,1,0,1.95,0,2.93,0,.09,0,.18.08.37.16,0,.62.08,1.28.14,2H902.2c.08-.7.16-1.4.24-2.17H908c.06.73.11,1.39.17,2.21Z" transform="translate(-770 -572.75)"/><path class="cls-1" d="M821.11,673.44v-3.92h44.48v3.92Z" transform="translate(-770 -572.75)"/><path class="cls-1" d="M798.94,670.36v-2.9h5.32v2.78h12.63v7h-4.63v-3.37H791.75v3.39H787v-6.91Z" transform="translate(-770 -572.75)"/><path class="cls-1" d="M771.18,678.88h12.76v13.43H771.18ZM780,689.06v-6.95h-4.91v6.95Z" transform="translate(-770 -572.75)"/><path class="cls-1" d="M770,706.68v-3.2l2.35-.16c-.22-2.18-.43-4.31-.65-6.52h3.71c.25,2.15.51,4.3.77,6.51.43,0,.81,0,1.19.09,1.42.23,2-.25,2-1.8a40.05,40.05,0,0,1,.49-4.8h3.74c-.24,2.17-.48,4.27-.73,6.49l2.24.21v3.18Z" transform="translate(-770 -572.75)"/><path class="cls-1" d="M770.22,673.67v-3.29h14.59v3.29Z" transform="translate(-770 -572.75)"/></svg>